<?xml version="1.0" encoding="UTF-8"?>
<svg version="1.1" xmlns="http://www.w3.org/2000/svg" width="1800" height="360">
<path d="M0 0 C3.84491806 3.89301456 5.55944367 8.29213577 7.4609375 13.30859375 C7.93051376 14.51335106 7.93051376 14.51335106 8.40957642 15.7424469 C9.40643653 18.30430638 10.39123772 20.8705859 11.375 23.4375 C12.67078318 26.7918027 13.97147715 30.14418451 15.2734375 33.49609375 C15.58961533 34.31254364 15.90579315 35.12899353 16.23155212 35.97018433 C18.59896272 42.05385363 21.12814339 48.04859273 23.73144531 54.03540039 C25.34786523 57.81295756 26.79825381 61.63427148 28.1875 65.5 C30.78629719 74.19439962 30.78629719 74.19439962 36.57446289 80.60351562 C40.62805615 82.25603886 44.17728101 82.71274343 48.5078125 83.0625 C49.33475616 83.13879135 50.16169983 83.2150827 51.01370239 83.29368591 C52.79204771 83.45584723 54.57091894 83.61232352 56.35021973 83.76364136 C59.15233693 84.00232859 61.95257498 84.25737904 64.75292969 84.51586914 C74.0190258 85.36060212 83.28780816 86.10754429 92.5703125 86.74609375 C95.01745709 86.92208488 97.46451221 87.09928086 99.91156006 87.27661133 C102.20739272 87.43456855 104.50375133 87.56651103 106.80126953 87.69726562 C108.20613285 87.79576644 109.61092317 87.89531617 111.015625 87.99609375 C112.22508789 88.07013428 113.43455078 88.1441748 114.68066406 88.22045898 C119.06785206 89.25078344 120.84059346 90.80946484 124 94 C124.61328125 97.04296875 124.61328125 97.04296875 124 100 C122.41796875 102.23828125 122.41796875 102.23828125 120.1875 104.3125 C119.35863281 105.08722656 118.52976562 105.86195313 117.67578125 106.66015625 C114.21240793 109.68871189 110.67640712 112.60797637 107.0859375 115.484375 C103.49001714 118.41573287 99.99390475 121.44849527 96.5 124.5 C92.19605176 128.25308598 87.87237156 131.96365725 83.4375 135.5625 C79.10698278 139.08023246 74.81827116 142.64243333 70.5625 146.25 C69.97073975 146.7457251 69.37897949 147.2414502 68.76928711 147.75219727 C67.14627191 149.13507602 65.57411284 150.56206331 64 152 C63.16339844 152.69609375 62.32679688 153.3921875 61.46484375 154.109375 C58.94236568 159.08706505 60.74789506 163.75013339 62 169 C62.15416382 169.65579041 62.30832764 170.31158081 62.46716309 170.98724365 C63.70814349 176.2365877 65.03558103 181.46256427 66.375 186.6875 C67.15581293 189.7533581 67.93378142 192.81993187 68.7109375 195.88671875 C68.90236328 196.63992401 69.09378906 197.39312927 69.29101562 198.16915894 C70.80584498 204.15730826 72.23696368 210.16300699 73.61532593 216.18400574 C74.68962248 220.83635673 75.93550863 225.41141534 77.25 230 C78.96302491 236.37136933 80.48721664 242.18900736 78 248.5625 C75.51692681 250.34720885 73.50628822 250.86093223 70.45263672 250.69311523 C67.22508383 249.78100866 65.09813766 248.19410241 62.3828125 246.22265625 C61.2239431 245.39566993 60.06353132 244.57084213 58.90185547 243.74780273 C58.27583435 243.3033078 57.64981323 242.85881287 57.00482178 242.40084839 C53.38972731 239.87483869 49.70142034 237.46021419 46.015625 235.0390625 C45.22364716 234.51811508 44.43166931 233.99716766 43.61569214 233.46043396 C41.983489 232.38767186 40.35084481 231.31558055 38.71777344 230.24414062 C36.26646454 228.63580261 33.81669547 227.02514169 31.3671875 225.4140625 C28.15839207 223.30388607 24.94489855 221.20112813 21.72851562 219.10253906 C18.55198678 217.02739255 15.39786325 214.92292093 12.25585938 212.79589844 C11.11404205 212.03265762 11.11404205 212.03265762 9.94915771 211.2539978 C8.5194234 210.29823458 7.09591495 209.33306037 5.68023682 208.3565979 C1.4873271 205.57539932 -1.82998957 204.14080986 -7 204 C-9.10849127 204.58074384 -9.10849127 204.58074384 -10.796875 205.80859375 C-11.43923096 206.22149658 -12.08158691 206.63439941 -12.7434082 207.05981445 C-13.4055835 207.51445068 -14.06775879 207.96908691 -14.75 208.4375 C-15.45535889 208.90051514 -16.16071777 209.36353027 -16.88745117 209.84057617 C-21.66405279 213.004087 -26.31936606 216.32812397 -30.9140625 219.75 C-37.35446893 224.44579 -43.99347118 228.8638906 -50.58105469 233.34960938 C-54.98028456 236.3511025 -59.36450249 239.37442808 -63.7487793 242.39770508 C-64.93928982 243.2175386 -66.13134466 244.03513574 -67.32519531 244.85009766 C-68.96781174 245.97789989 -70.59543487 247.12744064 -72.22265625 248.27734375 C-75.77983369 250.48369432 -77.88517743 250.60960334 -82 250 C-84.4375 248.4375 -84.4375 248.4375 -86 246 C-86.37384919 240.75966572 -85.46211723 236.33741127 -83.9375 231.375 C-80.14331351 218.37109963 -77.11622839 205.17915654 -74 192 C-73.70883301 190.77861328 -73.41766602 189.55722656 -73.11767578 188.29882812 C-72.280604 184.78397839 -71.45140976 181.26737013 -70.625 177.75 C-70.24903687 176.1721875 -70.24903687 176.1721875 -69.86547852 174.5625 C-69.20314551 171.71490609 -68.58273844 168.86487098 -68 166 C-67.82694336 165.15759766 -67.65388672 164.31519531 -67.47558594 163.44726562 C-66.82886584 159.51507776 -66.58169506 157.71952453 -68.6328125 154.19140625 C-70.99076345 152.00855067 -73.35166212 149.92779234 -75.875 147.9375 C-80.25357423 144.42533687 -84.55872137 140.84978389 -88.8125 137.1875 C-89.39789551 136.68436279 -89.98329102 136.18122559 -90.58642578 135.6628418 C-93.00217345 133.58500925 -95.41557947 131.50447842 -97.82763672 129.42236328 C-106.3978748 122.01686775 -106.3978748 122.01686775 -115.1875 114.875 C-118.88311648 111.93446795 -122.51099531 108.92546906 -126.0625 105.8125 C-127.44115234 104.61560547 -127.44115234 104.61560547 -128.84765625 103.39453125 C-131.17764868 100.80236181 -131.76416953 99.43392178 -132 96 C-131.5 93.875 -131.5 93.875 -130 92 C-125.0600641 89.51236863 -120.73801432 88.48446504 -115.20703125 88.15625 C-114.10321358 88.07497108 -114.10321358 88.07497108 -112.97709656 87.99205017 C-111.40404687 87.87719284 -109.83060059 87.76766113 -108.25683594 87.66305542 C-104.10290592 87.38595734 -99.95210511 87.0672721 -95.80078125 86.75390625 C-94.96858063 86.69211685 -94.13638 86.63032745 -93.27896118 86.56666565 C-85.6701221 85.9947235 -78.08627082 85.25928049 -70.5 84.4375 C-69.41823486 84.32277344 -68.33646973 84.20804687 -67.22192383 84.08984375 C-64.14443375 83.75166331 -61.07296604 83.37682732 -58 83 C-56.83726563 82.88156738 -55.67453125 82.76313477 -54.4765625 82.64111328 C-52.74019531 82.43397705 -52.74019531 82.43397705 -50.96875 82.22265625 C-49.92138672 82.10801025 -48.87402344 81.99336426 -47.79492188 81.87524414 C-44.11968299 80.72432421 -43.05774862 79.2128123 -41 76 C-39.66214946 73.29901426 -39.66214946 73.29901426 -38.58984375 70.37109375 C-38.16276123 69.26725342 -37.73567871 68.16341309 -37.2956543 67.02612305 C-36.84746338 65.84187744 -36.39927246 64.65763184 -35.9375 63.4375 C-35.21251568 61.5566758 -34.48751738 59.67585683 -33.76167297 57.79536438 C-33.00835413 55.84050715 -32.25882346 53.88422782 -31.50976562 51.92773438 C-28.65324997 44.47976411 -25.71478991 37.06364541 -22.79052734 29.64208984 C-20.88206607 24.79646857 -18.97519113 19.95116199 -17.1171875 15.0859375 C-16.71270386 14.03950073 -16.71270386 14.03950073 -16.30004883 12.97192383 C-15.63307668 11.2452144 -14.97425559 9.51536189 -14.31640625 7.78515625 C-10.87095984 0.49553225 -7.96476975 -1.92253063 0 0 Z " fill="#F4F6F7" transform="translate(1625,51)"/>
<path d="M0 0 C3.84491806 3.89301456 5.55944367 8.29213577 7.4609375 13.30859375 C7.93051376 14.51335106 7.93051376 14.51335106 8.40957642 15.7424469 C9.40643653 18.30430638 10.39123772 20.8705859 11.375 23.4375 C12.67078318 26.7918027 13.97147715 30.14418451 15.2734375 33.49609375 C15.58961533 34.31254364 15.90579315 35.12899353 16.23155212 35.97018433 C18.59896272 42.05385363 21.12814339 48.04859273 23.73144531 54.03540039 C25.34786523 57.81295756 26.79825381 61.63427148 28.1875 65.5 C30.78629719 74.19439962 30.78629719 74.19439962 36.57446289 80.60351562 C40.62805615 82.25603886 44.17728101 82.71274343 48.5078125 83.0625 C49.33475616 83.13879135 50.16169983 83.2150827 51.01370239 83.29368591 C52.79204771 83.45584723 54.57091894 83.61232352 56.35021973 83.76364136 C59.15233693 84.00232859 61.95257498 84.25737904 64.75292969 84.51586914 C74.0190258 85.36060212 83.28780816 86.10754429 92.5703125 86.74609375 C95.01745709 86.92208488 97.46451221 87.09928086 99.91156006 87.27661133 C102.20739272 87.43456855 104.50375133 87.56651103 106.80126953 87.69726562 C108.20613285 87.79576644 109.61092317 87.89531617 111.015625 87.99609375 C112.22508789 88.07013428 113.43455078 88.1441748 114.68066406 88.22045898 C119.06785206 89.25078344 120.84059346 90.80946484 124 94 C124.61328125 97.04296875 124.61328125 97.04296875 124 100 C122.41796875 102.23828125 122.41796875 102.23828125 120.1875 104.3125 C119.35863281 105.08722656 118.52976562 105.86195313 117.67578125 106.66015625 C114.21240793 109.68871189 110.67640712 112.60797637 107.0859375 115.484375 C103.49001714 118.41573287 99.99390475 121.44849527 96.5 124.5 C92.19605176 128.25308598 87.87237156 131.96365725 83.4375 135.5625 C79.10698278 139.08023246 74.81827116 142.64243333 70.5625 146.25 C69.97073975 146.7457251 69.37897949 147.2414502 68.76928711 147.75219727 C67.14627191 149.13507602 65.57411284 150.56206331 64 152 C63.16339844 152.69609375 62.32679688 153.3921875 61.46484375 154.109375 C58.94236568 159.08706505 60.74789506 163.75013339 62 169 C62.15416382 169.65579041 62.30832764 170.31158081 62.46716309 170.98724365 C63.70814349 176.2365877 65.03558103 181.46256427 66.375 186.6875 C67.15581293 189.7533581 67.93378142 192.81993187 68.7109375 195.88671875 C68.90236328 196.63992401 69.09378906 197.39312927 69.29101562 198.16915894 C70.80584498 204.15730826 72.23696368 210.16300699 73.61532593 216.18400574 C74.68962248 220.83635673 75.93550863 225.41141534 77.25 230 C78.96302491 236.37136933 80.48721664 242.18900736 78 248.5625 C75.51692681 250.34720885 73.50628822 250.86093223 70.45263672 250.69311523 C67.22508383 249.78100866 65.09813766 248.19410241 62.3828125 246.22265625 C61.2239431 245.39566993 60.06353132 244.57084213 58.90185547 243.74780273 C58.27583435 243.3033078 57.64981323 242.85881287 57.00482178 242.40084839 C53.38972731 239.87483869 49.70142034 237.46021419 46.015625 235.0390625 C45.22364716 234.51811508 44.43166931 233.99716766 43.61569214 233.46043396 C41.983489 232.38767186 40.35084481 231.31558055 38.71777344 230.24414062 C36.26646454 228.63580261 33.81669547 227.02514169 31.3671875 225.4140625 C28.15839207 223.30388607 24.94489855 221.20112813 21.72851562 219.10253906 C18.55198678 217.02739255 15.39786325 214.92292093 12.25585938 212.79589844 C11.11404205 212.03265762 11.11404205 212.03265762 9.94915771 211.2539978 C8.5194234 210.29823458 7.09591495 209.33306037 5.68023682 208.3565979 C1.4873271 205.57539932 -1.82998957 204.14080986 -7 204 C-9.10849127 204.58074384 -9.10849127 204.58074384 -10.796875 205.80859375 C-11.43923096 206.22149658 -12.08158691 206.63439941 -12.7434082 207.05981445 C-13.4055835 207.51445068 -14.06775879 207.96908691 -14.75 208.4375 C-15.45535889 208.90051514 -16.16071777 209.36353027 -16.88745117 209.84057617 C-21.66405279 213.004087 -26.31936606 216.32812397 -30.9140625 219.75 C-37.35446893 224.44579 -43.99347118 228.8638906 -50.58105469 233.34960938 C-54.98028456 236.3511025 -59.36450249 239.37442808 -63.7487793 242.39770508 C-64.93928982 243.2175386 -66.13134466 244.03513574 -67.32519531 244.85009766 C-68.96781174 245.97789989 -70.59543487 247.12744064 -72.22265625 248.27734375 C-75.77983369 250.48369432 -77.88517743 250.60960334 -82 250 C-84.4375 248.4375 -84.4375 248.4375 -86 246 C-86.37384919 240.75966572 -85.46211723 236.33741127 -83.9375 231.375 C-80.14331351 218.37109963 -77.11622839 205.17915654 -74 192 C-73.70883301 190.77861328 -73.41766602 189.55722656 -73.11767578 188.29882812 C-72.280604 184.78397839 -71.45140976 181.26737013 -70.625 177.75 C-70.24903687 176.1721875 -70.24903687 176.1721875 -69.86547852 174.5625 C-69.20314551 171.71490609 -68.58273844 168.86487098 -68 166 C-67.82694336 165.15759766 -67.65388672 164.31519531 -67.47558594 163.44726562 C-66.82886584 159.51507776 -66.58169506 157.71952453 -68.6328125 154.19140625 C-70.99076345 152.00855067 -73.35166212 149.92779234 -75.875 147.9375 C-80.25357423 144.42533687 -84.55872137 140.84978389 -88.8125 137.1875 C-89.39789551 136.68436279 -89.98329102 136.18122559 -90.58642578 135.6628418 C-93.00217345 133.58500925 -95.41557947 131.50447842 -97.82763672 129.42236328 C-106.3978748 122.01686775 -106.3978748 122.01686775 -115.1875 114.875 C-118.88311648 111.93446795 -122.51099531 108.92546906 -126.0625 105.8125 C-127.44115234 104.61560547 -127.44115234 104.61560547 -128.84765625 103.39453125 C-131.17764868 100.80236181 -131.76416953 99.43392178 -132 96 C-131.5 93.875 -131.5 93.875 -130 92 C-125.0600641 89.51236863 -120.73801432 88.48446504 -115.20703125 88.15625 C-114.10321358 88.07497108 -114.10321358 88.07497108 -112.97709656 87.99205017 C-111.40404687 87.87719284 -109.83060059 87.76766113 -108.25683594 87.66305542 C-104.10290592 87.38595734 -99.95210511 87.0672721 -95.80078125 86.75390625 C-94.96858063 86.69211685 -94.13638 86.63032745 -93.27896118 86.56666565 C-85.6701221 85.9947235 -78.08627082 85.25928049 -70.5 84.4375 C-69.41823486 84.32277344 -68.33646973 84.20804687 -67.22192383 84.08984375 C-64.14443375 83.75166331 -61.07296604 83.37682732 -58 83 C-56.83726563 82.88156738 -55.67453125 82.76313477 -54.4765625 82.64111328 C-52.74019531 82.43397705 -52.74019531 82.43397705 -50.96875 82.22265625 C-49.92138672 82.10801025 -48.87402344 81.99336426 -47.79492188 81.87524414 C-44.11968299 80.72432421 -43.05774862 79.2128123 -41 76 C-39.66214946 73.29901426 -39.66214946 73.29901426 -38.58984375 70.37109375 C-38.16276123 69.26725342 -37.73567871 68.16341309 -37.2956543 67.02612305 C-36.84746338 65.84187744 -36.39927246 64.65763184 -35.9375 63.4375 C-35.21251568 61.5566758 -34.48751738 59.67585683 -33.76167297 57.79536438 C-33.00835413 55.84050715 -32.25882346 53.88422782 -31.50976562 51.92773438 C-28.65324997 44.47976411 -25.71478991 37.06364541 -22.79052734 29.64208984 C-20.88206607 24.79646857 -18.97519113 19.95116199 -17.1171875 15.0859375 C-16.71270386 14.03950073 -16.71270386 14.03950073 -16.30004883 12.97192383 C-15.63307668 11.2452144 -14.97425559 9.51536189 -14.31640625 7.78515625 C-10.87095984 0.49553225 -7.96476975 -1.92253063 0 0 Z " fill="#F4F6F7" transform="translate(1265,51)"/>
<path d="M0 0 C3.84491806 3.89301456 5.55944367 8.29213577 7.4609375 13.30859375 C7.93051376 14.51335106 7.93051376 14.51335106 8.40957642 15.7424469 C9.40643653 18.30430638 10.39123772 20.8705859 11.375 23.4375 C12.67078318 26.7918027 13.97147715 30.14418451 15.2734375 33.49609375 C15.58961533 34.31254364 15.90579315 35.12899353 16.23155212 35.97018433 C18.59896272 42.05385363 21.12814339 48.04859273 23.73144531 54.03540039 C25.34786523 57.81295756 26.79825381 61.63427148 28.1875 65.5 C30.78629719 74.19439962 30.78629719 74.19439962 36.57446289 80.60351562 C40.62805615 82.25603886 44.17728101 82.71274343 48.5078125 83.0625 C49.33475616 83.13879135 50.16169983 83.2150827 51.01370239 83.29368591 C52.79204771 83.45584723 54.57091894 83.61232352 56.35021973 83.76364136 C59.15233693 84.00232859 61.95257498 84.25737904 64.75292969 84.51586914 C74.0190258 85.36060212 83.28780816 86.10754429 92.5703125 86.74609375 C95.01745709 86.92208488 97.46451221 87.09928086 99.91156006 87.27661133 C102.20739272 87.43456855 104.50375133 87.56651103 106.80126953 87.69726562 C108.20613285 87.79576644 109.61092317 87.89531617 111.015625 87.99609375 C112.22508789 88.07013428 113.43455078 88.1441748 114.68066406 88.22045898 C119.06785206 89.25078344 120.84059346 90.80946484 124 94 C124.61328125 97.04296875 124.61328125 97.04296875 124 100 C122.41796875 102.23828125 122.41796875 102.23828125 120.1875 104.3125 C119.35863281 105.08722656 118.52976562 105.86195313 117.67578125 106.66015625 C114.21240793 109.68871189 110.67640712 112.60797637 107.0859375 115.484375 C103.49001714 118.41573287 99.99390475 121.44849527 96.5 124.5 C92.19605176 128.25308598 87.87237156 131.96365725 83.4375 135.5625 C79.10698278 139.08023246 74.81827116 142.64243333 70.5625 146.25 C69.97073975 146.7457251 69.37897949 147.2414502 68.76928711 147.75219727 C67.14627191 149.13507602 65.57411284 150.56206331 64 152 C63.16339844 152.69609375 62.32679688 153.3921875 61.46484375 154.109375 C58.94236568 159.08706505 60.74789506 163.75013339 62 169 C62.15416382 169.65579041 62.30832764 170.31158081 62.46716309 170.98724365 C63.70814349 176.2365877 65.03558103 181.46256427 66.375 186.6875 C67.15581293 189.7533581 67.93378142 192.81993187 68.7109375 195.88671875 C68.90236328 196.63992401 69.09378906 197.39312927 69.29101562 198.16915894 C70.80584498 204.15730826 72.23696368 210.16300699 73.61532593 216.18400574 C74.68962248 220.83635673 75.93550863 225.41141534 77.25 230 C78.96302491 236.37136933 80.48721664 242.18900736 78 248.5625 C75.51692681 250.34720885 73.50628822 250.86093223 70.45263672 250.69311523 C67.22508383 249.78100866 65.09813766 248.19410241 62.3828125 246.22265625 C61.2239431 245.39566993 60.06353132 244.57084213 58.90185547 243.74780273 C58.27583435 243.3033078 57.64981323 242.85881287 57.00482178 242.40084839 C53.38972731 239.87483869 49.70142034 237.46021419 46.015625 235.0390625 C45.22364716 234.51811508 44.43166931 233.99716766 43.61569214 233.46043396 C41.983489 232.38767186 40.35084481 231.31558055 38.71777344 230.24414062 C36.26646454 228.63580261 33.81669547 227.02514169 31.3671875 225.4140625 C28.15839207 223.30388607 24.94489855 221.20112813 21.72851562 219.10253906 C18.55198678 217.02739255 15.39786325 214.92292093 12.25585938 212.79589844 C11.11404205 212.03265762 11.11404205 212.03265762 9.94915771 211.2539978 C8.5194234 210.29823458 7.09591495 209.33306037 5.68023682 208.3565979 C1.4873271 205.57539932 -1.82998957 204.14080986 -7 204 C-9.10849127 204.58074384 -9.10849127 204.58074384 -10.796875 205.80859375 C-11.43923096 206.22149658 -12.08158691 206.63439941 -12.7434082 207.05981445 C-13.4055835 207.51445068 -14.06775879 207.96908691 -14.75 208.4375 C-15.45535889 208.90051514 -16.16071777 209.36353027 -16.88745117 209.84057617 C-21.66405279 213.004087 -26.31936606 216.32812397 -30.9140625 219.75 C-37.35446893 224.44579 -43.99347118 228.8638906 -50.58105469 233.34960938 C-54.98028456 236.3511025 -59.36450249 239.37442808 -63.7487793 242.39770508 C-64.93928982 243.2175386 -66.13134466 244.03513574 -67.32519531 244.85009766 C-68.96781174 245.97789989 -70.59543487 247.12744064 -72.22265625 248.27734375 C-75.77983369 250.48369432 -77.88517743 250.60960334 -82 250 C-84.4375 248.4375 -84.4375 248.4375 -86 246 C-86.37384919 240.75966572 -85.46211723 236.33741127 -83.9375 231.375 C-80.14331351 218.37109963 -77.11622839 205.17915654 -74 192 C-73.70883301 190.77861328 -73.41766602 189.55722656 -73.11767578 188.29882812 C-72.280604 184.78397839 -71.45140976 181.26737013 -70.625 177.75 C-70.24903687 176.1721875 -70.24903687 176.1721875 -69.86547852 174.5625 C-69.20314551 171.71490609 -68.58273844 168.86487098 -68 166 C-67.82694336 165.15759766 -67.65388672 164.31519531 -67.47558594 163.44726562 C-66.82886584 159.51507776 -66.58169506 157.71952453 -68.6328125 154.19140625 C-70.99076345 152.00855067 -73.35166212 149.92779234 -75.875 147.9375 C-80.25357423 144.42533687 -84.55872137 140.84978389 -88.8125 137.1875 C-89.39789551 136.68436279 -89.98329102 136.18122559 -90.58642578 135.6628418 C-93.00217345 133.58500925 -95.41557947 131.50447842 -97.82763672 129.42236328 C-106.3978748 122.01686775 -106.3978748 122.01686775 -115.1875 114.875 C-118.88311648 111.93446795 -122.51099531 108.92546906 -126.0625 105.8125 C-127.44115234 104.61560547 -127.44115234 104.61560547 -128.84765625 103.39453125 C-131.17764868 100.80236181 -131.76416953 99.43392178 -132 96 C-131.5 93.875 -131.5 93.875 -130 92 C-125.0600641 89.51236863 -120.73801432 88.48446504 -115.20703125 88.15625 C-114.10321358 88.07497108 -114.10321358 88.07497108 -112.97709656 87.99205017 C-111.40404687 87.87719284 -109.83060059 87.76766113 -108.25683594 87.66305542 C-104.10290592 87.38595734 -99.95210511 87.0672721 -95.80078125 86.75390625 C-94.96858063 86.69211685 -94.13638 86.63032745 -93.27896118 86.56666565 C-85.6701221 85.9947235 -78.08627082 85.25928049 -70.5 84.4375 C-69.41823486 84.32277344 -68.33646973 84.20804687 -67.22192383 84.08984375 C-64.14443375 83.75166331 -61.07296604 83.37682732 -58 83 C-56.83726562 82.88156738 -55.67453125 82.76313477 -54.4765625 82.64111328 C-52.74019531 82.43397705 -52.74019531 82.43397705 -50.96875 82.22265625 C-49.92138672 82.10801025 -48.87402344 81.99336426 -47.79492188 81.87524414 C-44.11968299 80.72432421 -43.05774862 79.2128123 -41 76 C-39.66214946 73.29901426 -39.66214946 73.29901426 -38.58984375 70.37109375 C-38.16276123 69.26725342 -37.73567871 68.16341309 -37.2956543 67.02612305 C-36.84746338 65.84187744 -36.39927246 64.65763184 -35.9375 63.4375 C-35.21251568 61.5566758 -34.48751738 59.67585683 -33.76167297 57.79536438 C-33.00835413 55.84050715 -32.25882346 53.88422782 -31.50976562 51.92773438 C-28.65324997 44.47976411 -25.71478991 37.06364541 -22.79052734 29.64208984 C-20.88206607 24.79646857 -18.97519113 19.95116199 -17.1171875 15.0859375 C-16.71270386 14.03950073 -16.71270386 14.03950073 -16.30004883 12.97192383 C-15.63307668 11.2452144 -14.97425559 9.51536189 -14.31640625 7.78515625 C-10.87095984 0.49553225 -7.96476975 -1.92253063 0 0 Z " fill="#F4F6F7" transform="translate(905,51)"/>
<path d="M0 0 C3.84491806 3.89301456 5.55944367 8.29213577 7.4609375 13.30859375 C7.93051376 14.51335106 7.93051376 14.51335106 8.40957642 15.7424469 C9.40643653 18.30430638 10.39123772 20.8705859 11.375 23.4375 C12.67078318 26.7918027 13.97147715 30.14418451 15.2734375 33.49609375 C15.58961533 34.31254364 15.90579315 35.12899353 16.23155212 35.97018433 C18.59896272 42.05385363 21.12814339 48.04859273 23.73144531 54.03540039 C25.34786523 57.81295756 26.79825381 61.63427148 28.1875 65.5 C30.78629719 74.19439962 30.78629719 74.19439962 36.57446289 80.60351562 C40.62805615 82.25603886 44.17728101 82.71274343 48.5078125 83.0625 C49.33475616 83.13879135 50.16169983 83.2150827 51.01370239 83.29368591 C52.79204771 83.45584723 54.57091894 83.61232352 56.35021973 83.76364136 C59.15233693 84.00232859 61.95257498 84.25737904 64.75292969 84.51586914 C74.0190258 85.36060212 83.28780816 86.10754429 92.5703125 86.74609375 C95.01745709 86.92208488 97.46451221 87.09928086 99.91156006 87.27661133 C102.20739272 87.43456855 104.50375133 87.56651103 106.80126953 87.69726562 C108.20613285 87.79576644 109.61092317 87.89531617 111.015625 87.99609375 C112.22508789 88.07013428 113.43455078 88.1441748 114.68066406 88.22045898 C119.06785206 89.25078344 120.84059346 90.80946484 124 94 C124.61328125 97.04296875 124.61328125 97.04296875 124 100 C122.41796875 102.23828125 122.41796875 102.23828125 120.1875 104.3125 C119.35863281 105.08722656 118.52976562 105.86195313 117.67578125 106.66015625 C114.21240793 109.68871189 110.67640712 112.60797637 107.0859375 115.484375 C103.49001714 118.41573287 99.99390475 121.44849527 96.5 124.5 C92.19605176 128.25308598 87.87237156 131.96365725 83.4375 135.5625 C79.10698278 139.08023246 74.81827116 142.64243333 70.5625 146.25 C69.97073975 146.7457251 69.37897949 147.2414502 68.76928711 147.75219727 C67.14627191 149.13507602 65.57411284 150.56206331 64 152 C63.16339844 152.69609375 62.32679688 153.3921875 61.46484375 154.109375 C58.94236568 159.08706505 60.74789506 163.75013339 62 169 C62.15416382 169.65579041 62.30832764 170.31158081 62.46716309 170.98724365 C63.70814349 176.2365877 65.03558103 181.46256427 66.375 186.6875 C67.15581293 189.7533581 67.93378142 192.81993187 68.7109375 195.88671875 C68.90236328 196.63992401 69.09378906 197.39312927 69.29101562 198.16915894 C70.80584498 204.15730826 72.23696368 210.16300699 73.61532593 216.18400574 C74.68962248 220.83635673 75.93550863 225.41141534 77.25 230 C78.96302491 236.37136933 80.48721664 242.18900736 78 248.5625 C75.51692681 250.34720885 73.50628822 250.86093223 70.45263672 250.69311523 C67.22508383 249.78100866 65.09813766 248.19410241 62.3828125 246.22265625 C61.2239431 245.39566993 60.06353132 244.57084213 58.90185547 243.74780273 C58.27583435 243.3033078 57.64981323 242.85881287 57.00482178 242.40084839 C53.38972731 239.87483869 49.70142034 237.46021419 46.015625 235.0390625 C45.22364716 234.51811508 44.43166931 233.99716766 43.61569214 233.46043396 C41.983489 232.38767186 40.35084481 231.31558055 38.71777344 230.24414062 C36.26646454 228.63580261 33.81669547 227.02514169 31.3671875 225.4140625 C28.15839207 223.30388607 24.94489855 221.20112813 21.72851562 219.10253906 C18.55198678 217.02739255 15.39786325 214.92292093 12.25585938 212.79589844 C11.11404205 212.03265762 11.11404205 212.03265762 9.94915771 211.2539978 C8.5194234 210.29823458 7.09591495 209.33306037 5.68023682 208.3565979 C1.4873271 205.57539932 -1.82998957 204.14080986 -7 204 C-9.10849127 204.58074384 -9.10849127 204.58074384 -10.796875 205.80859375 C-11.43923096 206.22149658 -12.08158691 206.63439941 -12.7434082 207.05981445 C-13.4055835 207.51445068 -14.06775879 207.96908691 -14.75 208.4375 C-15.45535889 208.90051514 -16.16071777 209.36353027 -16.88745117 209.84057617 C-21.66405279 213.004087 -26.31936606 216.32812397 -30.9140625 219.75 C-37.35446893 224.44579 -43.99347118 228.8638906 -50.58105469 233.34960938 C-54.98028456 236.3511025 -59.36450249 239.37442808 -63.7487793 242.39770508 C-64.93928982 243.2175386 -66.13134466 244.03513574 -67.32519531 244.85009766 C-68.96781174 245.97789989 -70.59543487 247.12744064 -72.22265625 248.27734375 C-75.77983369 250.48369432 -77.88517743 250.60960334 -82 250 C-84.4375 248.4375 -84.4375 248.4375 -86 246 C-86.37384919 240.75966572 -85.46211723 236.33741127 -83.9375 231.375 C-80.14331351 218.37109963 -77.11622839 205.17915654 -74 192 C-73.70883301 190.77861328 -73.41766602 189.55722656 -73.11767578 188.29882812 C-72.280604 184.78397839 -71.45140976 181.26737013 -70.625 177.75 C-70.24903687 176.1721875 -70.24903687 176.1721875 -69.86547852 174.5625 C-69.20314551 171.71490609 -68.58273844 168.86487098 -68 166 C-67.82694336 165.15759766 -67.65388672 164.31519531 -67.47558594 163.44726562 C-66.82886584 159.51507776 -66.58169506 157.71952453 -68.6328125 154.19140625 C-70.99076345 152.00855067 -73.35166212 149.92779234 -75.875 147.9375 C-80.25357423 144.42533687 -84.55872137 140.84978389 -88.8125 137.1875 C-89.39789551 136.68436279 -89.98329102 136.18122559 -90.58642578 135.6628418 C-93.00217345 133.58500925 -95.41557947 131.50447842 -97.82763672 129.42236328 C-106.3978748 122.01686775 -106.3978748 122.01686775 -115.1875 114.875 C-118.88311648 111.93446795 -122.51099531 108.92546906 -126.0625 105.8125 C-127.44115234 104.61560547 -127.44115234 104.61560547 -128.84765625 103.39453125 C-131.17764868 100.80236181 -131.76416953 99.43392178 -132 96 C-131.5 93.875 -131.5 93.875 -130 92 C-125.0600641 89.51236863 -120.73801432 88.48446504 -115.20703125 88.15625 C-114.10321358 88.07497108 -114.10321358 88.07497108 -112.97709656 87.99205017 C-111.40404687 87.87719284 -109.83060059 87.76766113 -108.25683594 87.66305542 C-104.10290592 87.38595734 -99.95210511 87.0672721 -95.80078125 86.75390625 C-94.96858063 86.69211685 -94.13638 86.63032745 -93.27896118 86.56666565 C-85.6701221 85.9947235 -78.08627082 85.25928049 -70.5 84.4375 C-69.41823486 84.32277344 -68.33646973 84.20804687 -67.22192383 84.08984375 C-64.14443375 83.75166331 -61.07296604 83.37682732 -58 83 C-56.83726562 82.88156738 -55.67453125 82.76313477 -54.4765625 82.64111328 C-52.74019531 82.43397705 -52.74019531 82.43397705 -50.96875 82.22265625 C-49.92138672 82.10801025 -48.87402344 81.99336426 -47.79492188 81.87524414 C-44.11968299 80.72432421 -43.05774862 79.2128123 -41 76 C-39.66214946 73.29901426 -39.66214946 73.29901426 -38.58984375 70.37109375 C-38.16276123 69.26725342 -37.73567871 68.16341309 -37.2956543 67.02612305 C-36.84746338 65.84187744 -36.39927246 64.65763184 -35.9375 63.4375 C-35.21251568 61.5566758 -34.48751738 59.67585683 -33.76167297 57.79536438 C-33.00835413 55.84050715 -32.25882346 53.88422782 -31.50976562 51.92773438 C-28.65324997 44.47976411 -25.71478991 37.06364541 -22.79052734 29.64208984 C-20.88206607 24.79646857 -18.97519113 19.95116199 -17.1171875 15.0859375 C-16.71270386 14.03950073 -16.71270386 14.03950073 -16.30004883 12.97192383 C-15.63307668 11.2452144 -14.97425559 9.51536189 -14.31640625 7.78515625 C-10.87095984 0.49553225 -7.96476975 -1.92253063 0 0 Z " fill="#F4F6F7" transform="translate(545,51)"/>
<path d="M0 0 C3.84491806 3.89301456 5.55944367 8.29213577 7.4609375 13.30859375 C7.93051376 14.51335106 7.93051376 14.51335106 8.40957642 15.7424469 C9.40643653 18.30430638 10.39123772 20.8705859 11.375 23.4375 C12.67078318 26.7918027 13.97147715 30.14418451 15.2734375 33.49609375 C15.58961533 34.31254364 15.90579315 35.12899353 16.23155212 35.97018433 C18.59896272 42.05385363 21.12814339 48.04859273 23.73144531 54.03540039 C25.34786523 57.81295756 26.79825381 61.63427148 28.1875 65.5 C30.78629719 74.19439962 30.78629719 74.19439962 36.57446289 80.60351562 C40.62805615 82.25603886 44.17728101 82.71274343 48.5078125 83.0625 C49.33475616 83.13879135 50.16169983 83.2150827 51.01370239 83.29368591 C52.79204771 83.45584723 54.57091894 83.61232352 56.35021973 83.76364136 C59.15233693 84.00232859 61.95257498 84.25737904 64.75292969 84.51586914 C74.0190258 85.36060212 83.28780816 86.10754429 92.5703125 86.74609375 C95.01745709 86.92208488 97.46451221 87.09928086 99.91156006 87.27661133 C102.20739272 87.43456855 104.50375133 87.56651103 106.80126953 87.69726562 C108.20613285 87.79576644 109.61092317 87.89531617 111.015625 87.99609375 C112.22508789 88.07013428 113.43455078 88.1441748 114.68066406 88.22045898 C119.06785206 89.25078344 120.84059346 90.80946484 124 94 C124.61328125 97.04296875 124.61328125 97.04296875 124 100 C122.41796875 102.23828125 122.41796875 102.23828125 120.1875 104.3125 C119.35863281 105.08722656 118.52976562 105.86195313 117.67578125 106.66015625 C114.21240793 109.68871189 110.67640712 112.60797637 107.0859375 115.484375 C103.49001714 118.41573287 99.99390475 121.44849527 96.5 124.5 C92.19605176 128.25308598 87.87237156 131.96365725 83.4375 135.5625 C79.10698278 139.08023246 74.81827116 142.64243333 70.5625 146.25 C69.97073975 146.7457251 69.37897949 147.2414502 68.76928711 147.75219727 C67.14627191 149.13507602 65.57411284 150.56206331 64 152 C63.16339844 152.69609375 62.32679688 153.3921875 61.46484375 154.109375 C58.94236568 159.08706505 60.74789506 163.75013339 62 169 C62.15416382 169.65579041 62.30832764 170.31158081 62.46716309 170.98724365 C63.70814349 176.2365877 65.03558103 181.46256427 66.375 186.6875 C67.15581293 189.7533581 67.93378142 192.81993187 68.7109375 195.88671875 C68.90236328 196.63992401 69.09378906 197.39312927 69.29101562 198.16915894 C70.80584498 204.15730826 72.23696368 210.16300699 73.61532593 216.18400574 C74.68962248 220.83635673 75.93550863 225.41141534 77.25 230 C78.96302491 236.37136933 80.48721664 242.18900736 78 248.5625 C75.51692681 250.34720885 73.50628822 250.86093223 70.45263672 250.69311523 C67.22508383 249.78100866 65.09813766 248.19410241 62.3828125 246.22265625 C61.2239431 245.39566993 60.06353132 244.57084213 58.90185547 243.74780273 C58.27583435 243.3033078 57.64981323 242.85881287 57.00482178 242.40084839 C53.38972731 239.87483869 49.70142034 237.46021419 46.015625 235.0390625 C45.22364716 234.51811508 44.43166931 233.99716766 43.61569214 233.46043396 C41.983489 232.38767186 40.35084481 231.31558055 38.71777344 230.24414062 C36.26646454 228.63580261 33.81669547 227.02514169 31.3671875 225.4140625 C28.15839207 223.30388607 24.94489855 221.20112813 21.72851562 219.10253906 C18.55198678 217.02739255 15.39786325 214.92292093 12.25585938 212.79589844 C11.11404205 212.03265762 11.11404205 212.03265762 9.94915771 211.2539978 C8.5194234 210.29823458 7.09591495 209.33306037 5.68023682 208.3565979 C1.4873271 205.57539932 -1.82998957 204.14080986 -7 204 C-9.10849127 204.58074384 -9.10849127 204.58074384 -10.796875 205.80859375 C-11.43923096 206.22149658 -12.08158691 206.63439941 -12.7434082 207.05981445 C-13.4055835 207.51445068 -14.06775879 207.96908691 -14.75 208.4375 C-15.45535889 208.90051514 -16.16071777 209.36353027 -16.88745117 209.84057617 C-21.66405279 213.004087 -26.31936606 216.32812397 -30.9140625 219.75 C-37.35446893 224.44579 -43.99347118 228.8638906 -50.58105469 233.34960938 C-54.98028456 236.3511025 -59.36450249 239.37442808 -63.7487793 242.39770508 C-64.93928982 243.2175386 -66.13134466 244.03513574 -67.32519531 244.85009766 C-68.96781174 245.97789989 -70.59543487 247.12744064 -72.22265625 248.27734375 C-75.77983369 250.48369432 -77.88517743 250.60960334 -82 250 C-84.4375 248.4375 -84.4375 248.4375 -86 246 C-86.37384919 240.75966572 -85.46211723 236.33741127 -83.9375 231.375 C-80.14331351 218.37109963 -77.11622839 205.17915654 -74 192 C-73.70883301 190.77861328 -73.41766602 189.55722656 -73.11767578 188.29882812 C-72.280604 184.78397839 -71.45140976 181.26737013 -70.625 177.75 C-70.24903687 176.1721875 -70.24903687 176.1721875 -69.86547852 174.5625 C-69.20314551 171.71490609 -68.58273844 168.86487098 -68 166 C-67.82694336 165.15759766 -67.65388672 164.31519531 -67.47558594 163.44726562 C-66.82886584 159.51507776 -66.58169506 157.71952453 -68.6328125 154.19140625 C-70.99076345 152.00855067 -73.35166212 149.92779234 -75.875 147.9375 C-80.25357423 144.42533687 -84.55872137 140.84978389 -88.8125 137.1875 C-89.39789551 136.68436279 -89.98329102 136.18122559 -90.58642578 135.6628418 C-93.00217345 133.58500925 -95.41557947 131.50447842 -97.82763672 129.42236328 C-106.3978748 122.01686775 -106.3978748 122.01686775 -115.1875 114.875 C-118.88311648 111.93446795 -122.51099531 108.92546906 -126.0625 105.8125 C-127.44115234 104.61560547 -127.44115234 104.61560547 -128.84765625 103.39453125 C-131.17764868 100.80236181 -131.76416953 99.43392178 -132 96 C-131.5 93.875 -131.5 93.875 -130 92 C-125.0600641 89.51236863 -120.73801432 88.48446504 -115.20703125 88.15625 C-114.10321358 88.07497108 -114.10321358 88.07497108 -112.97709656 87.99205017 C-111.40404687 87.87719284 -109.83060059 87.76766113 -108.25683594 87.66305542 C-104.10290592 87.38595734 -99.95210511 87.0672721 -95.80078125 86.75390625 C-94.96858063 86.69211685 -94.13638 86.63032745 -93.27896118 86.56666565 C-85.6701221 85.9947235 -78.08627082 85.25928049 -70.5 84.4375 C-69.41823486 84.32277344 -68.33646973 84.20804687 -67.22192383 84.08984375 C-64.14443375 83.75166331 -61.07296604 83.37682732 -58 83 C-56.83726562 82.88156738 -55.67453125 82.76313477 -54.4765625 82.64111328 C-52.74019531 82.43397705 -52.74019531 82.43397705 -50.96875 82.22265625 C-49.92138672 82.10801025 -48.87402344 81.99336426 -47.79492188 81.87524414 C-44.11968299 80.72432421 -43.05774862 79.2128123 -41 76 C-39.66214946 73.29901426 -39.66214946 73.29901426 -38.58984375 70.37109375 C-38.16276123 69.26725342 -37.73567871 68.16341309 -37.2956543 67.02612305 C-36.84746338 65.84187744 -36.39927246 64.65763184 -35.9375 63.4375 C-35.21251568 61.5566758 -34.48751738 59.67585683 -33.76167297 57.79536438 C-33.00835413 55.84050715 -32.25882346 53.88422782 -31.50976562 51.92773438 C-28.65324997 44.47976411 -25.71478991 37.06364541 -22.79052734 29.64208984 C-20.88206607 24.79646857 -18.97519113 19.95116199 -17.1171875 15.0859375 C-16.71270386 14.03950073 -16.71270386 14.03950073 -16.30004883 12.97192383 C-15.63307668 11.2452144 -14.97425559 9.51536189 -14.31640625 7.78515625 C-10.87095984 0.49553225 -7.96476975 -1.92253063 0 0 Z " fill="#F4F6F7" transform="translate(185,51)"/>
</svg>
