<?xml version="1.0" encoding="UTF-8"?>
<svg version="1.1" xmlns="http://www.w3.org/2000/svg" width="525" height="476">
<path d="M0 0 C2.85967287 0.00918646 5.71852859 0.00224565 8.578125 -0.02050781 C27.20251091 -0.16771352 45.07017995 0.85322508 63.41943359 4.44604492 C64.48925476 4.65008438 64.48925476 4.65008438 65.58068848 4.85824585 C69.20042584 5.55806252 72.78120244 6.36197233 76.35693359 7.25854492 C77.37650146 7.51007324 78.39606934 7.76160156 79.4465332 8.02075195 C98.99839593 13.00926789 116.88493395 21.00548116 133.84521484 31.87963867 C137.17750081 33.9073271 139.74813032 34.56541014 143.57568359 34.65698242 C144.41921387 34.68308594 145.26274414 34.70918945 146.13183594 34.73608398 C147.05174316 34.76412109 147.97165039 34.7921582 148.91943359 34.82104492 C195.41159065 36.66369827 248.11574542 45.83974087 281.41943359 81.44604492 C292.40186042 94.09664017 299.74134851 109.96281612 299.72021484 126.89916992 C299.72664253 128.07138092 299.72664253 128.07138092 299.73320007 129.26727295 C299.73890618 130.91100096 299.73947131 132.5547542 299.73510742 134.19848633 C299.73195908 136.67598989 299.75541226 139.15228315 299.78076172 141.62963867 C299.81708047 150.65991962 299.26370178 158.7824795 296.41943359 167.44604492 C296.05462891 168.6087793 295.68982422 169.77151367 295.31396484 170.96948242 C285.66691581 196.39311346 268.09764124 217.468798 243.41503906 229.41625977 C219.40485953 240.21518199 192.9800014 242.542949 167.41943359 236.44604492 C166.74525391 236.29039062 166.07107422 236.13473633 165.37646484 235.97436523 C141.94620434 230.38457451 119.92932477 217.77407594 102.23193359 201.53588867 C101.6642627 201.02662842 101.0965918 200.51736816 100.51171875 199.99267578 C99.39127766 198.98357792 98.2857898 197.95755083 97.19824219 196.91308594 C94.37344382 194.38255573 92.83742413 193.45226217 89.00537109 193.39526367 C84.90727648 194.59612146 81.4131726 196.23665226 77.66943359 198.25854492 C71.3948969 201.51227631 65.21213882 204.41037616 58.41943359 206.44604492 C57.68466797 206.6703418 56.94990234 206.89463867 56.19287109 207.12573242 C30.83554658 213.48684819 4.36547678 204.36753083 -17.41748047 191.75268555 C-27.94772442 185.39175263 -37.49776809 178.0469748 -46.35791016 169.52807617 C-48.39855723 167.41826442 -48.39855723 167.41826442 -50.58056641 166.44604492 C-50.47459641 167.96012436 -50.47459641 167.96012436 -50.3664856 169.50479126 C-49.64107599 180.42044101 -49.43249618 191.28236406 -49.44775391 202.21948242 C-49.44707763 203.96245334 -49.44610493 205.70542417 -49.44485474 207.44839478 C-49.44339532 211.06692419 -49.44547654 214.68542861 -49.45019531 218.30395508 C-49.45591739 222.9130875 -49.45258676 227.52216199 -49.44662285 232.13129234 C-49.44299133 235.71746245 -49.44416725 239.30361904 -49.44675064 242.88978958 C-49.44741142 244.5888431 -49.44662166 246.2878979 -49.44427109 247.98694992 C-49.43467169 256.86365417 -49.63365398 265.61062932 -50.58056641 274.44604492 C-51.32459087 287.95547675 -51.32464071 300.64124259 -46.58056641 313.44604492 C-46.33387207 314.12715332 -46.08717773 314.80826172 -45.83300781 315.51000977 C-41.00103242 328.67113611 -34.62257507 340.389791 -25.49853516 351.13745117 C-23.58056641 353.44604492 -23.58056641 353.44604492 -21.94384766 355.91088867 C-20.29091971 358.25220307 -18.9843223 359.87939468 -16.58056641 361.44604492 C-12.3828918 361.70104385 -8.61809006 360.50477335 -4.58056641 359.44604492 C-1.71423889 358.87387448 1.16420163 358.38016964 4.04443359 357.88354492 C4.72425293 357.7574585 5.40407227 357.63137207 6.10449219 357.50146484 C23.64257972 354.30719226 50.97730048 350.58479743 67.04443359 359.98120117 C67.82818359 360.52647461 68.61193359 361.07174805 69.41943359 361.63354492 C76.32004936 366.25315581 84.79941115 365.53108067 92.67285156 364.01098633 C95.63332386 363.34159029 98.56950845 362.63097494 101.48413086 361.7824707 C107.70876276 360.04051701 112.8193547 360.12147643 118.73193359 363.13354492 C122.63180085 366.48924466 124.18217994 369.07680358 124.70068359 374.25463867 C124.96586615 383.10510643 122.94731652 388.98287554 117.31005859 395.77026367 C116.22126615 397.43883456 116.22126615 397.43883456 116.64990234 399.52026367 C117.36184587 401.65634021 117.36184587 401.65634021 119.48193359 403.57104492 C122.34904849 407.82547348 122.38581154 411.46432917 121.41943359 416.44604492 C119.84444635 419.7802632 117.67087889 422.53870337 115.41943359 425.44604492 C106.63281824 437.58724017 99.04669905 450.381659 92.16943359 463.69604492 C89.21008156 469.20301306 85.51395702 474.41453711 79.41943359 476.44604492 C62.90106619 477.9971931 47.54949572 475.65634597 31.65576172 471.3269043 C28.44418338 470.45278128 25.22315974 469.62608843 21.99755859 468.80541992 C-10.32418899 460.38974671 -36.68407348 446.60209667 -61.58056641 424.44604492 C-62.59763672 423.54112305 -62.59763672 423.54112305 -63.63525391 422.61791992 C-69.14321989 417.39984689 -73.63803832 411.20672089 -78.23583984 405.1965332 C-79.44483021 403.62273856 -80.67176016 402.06276395 -81.90087891 400.50463867 C-97.24582987 380.73220186 -108.85494297 357.74637912 -120.26806641 335.57104492 C-125.71407385 324.99262286 -131.43537673 314.63418695 -137.58056641 304.44604492 C-137.94005371 303.84356934 -138.29954102 303.24109375 -138.66992188 302.62036133 C-147.38925839 288.10739089 -158.164343 274.87158668 -168.7800293 261.71875 C-196.24800797 227.04764309 -211.10438819 181.36285906 -220.45556641 138.69604492 C-220.60118011 138.03408112 -220.74679382 137.37211731 -220.89682007 136.69009399 C-224.041762 122.26016197 -225.95423888 108.31066328 -225.95117188 93.55834961 C-225.95558831 91.18426925 -225.99219168 88.81199175 -226.02978516 86.43823242 C-226.14381428 71.24290988 -221.80597917 61.29057477 -211.40087891 50.10229492 C-204.30391396 43.31597154 -196.03578849 38.34012641 -187.58056641 33.44604492 C-186.65115234 32.90206055 -185.72173828 32.35807617 -184.76416016 31.79760742 C-177.90995506 28.09980974 -170.62172287 25.45875221 -163.33056641 22.75854492 C-162.31937744 22.37754639 -161.30818848 21.99654785 -160.26635742 21.60400391 C-145.65610774 16.34589088 -130.88217816 14.91641349 -115.51806641 13.88354492 C-97.97034825 12.66798984 -81.32076448 10.68704672 -64.26611328 6.1003418 C-43.10885567 0.69674304 -21.71965749 -0.07280475 0 0 Z " fill="#F3CD15" transform="translate(225.58056640625,-0.446044921875)"/>
<path d="M0 0 C0.66 0 1.32 0 2 0 C2 0.66 2 1.32 2 2 C2.99 2.33 3.98 2.66 5 3 C4.67 3.66 4.34 4.32 4 5 C3.01 4.34 2.02 3.68 1 3 C1.07064667 4.00938629 1.14129333 5.01877258 1.21408081 6.05874634 C1.93949041 16.97439608 2.14807023 27.83631913 2.1328125 38.7734375 C2.13348878 40.51640842 2.13446148 42.25937925 2.13571167 44.00234985 C2.13717108 47.62087926 2.13508986 51.23938369 2.13037109 54.85791016 C2.12464902 59.46704258 2.12797964 64.07611707 2.13394356 68.68524742 C2.13757508 72.27141753 2.13639916 75.85757412 2.13381577 79.44374466 C2.13315499 81.14279818 2.13394475 82.84185298 2.13629532 84.540905 C2.14508427 92.66818065 2.09467706 100.72198501 1.23129272 108.81439209 C0.73452738 113.50859193 0.76550846 118.22179272 0.75 122.9375 C0.74605225 123.98639404 0.74210449 125.03528809 0.73803711 126.1159668 C0.78828158 132.78190594 1.30737833 138.58060491 3.44140625 144.92578125 C4 147 4 147 3 150 C-2.59691453 141.6046282 -1.27800512 130.18994454 -1.20581055 120.49243164 C-1.18731849 117.91217372 -1.18530292 115.33227103 -1.18554688 112.75195312 C-1.1806392 111.1145802 -1.17481419 109.47720972 -1.16796875 107.83984375 C-1.16685593 107.06704575 -1.1657431 106.29424774 -1.16459656 105.49803162 C-1.11612817 100.11612817 -1.11612817 100.11612817 0 99 C0.10029857 96.57142965 0.13618425 94.17128387 0.12939453 91.7421875 C0.13202301 90.60321014 0.13202301 90.60321014 0.13470459 89.44122314 C0.1391233 86.91912584 0.13618506 84.39709807 0.1328125 81.875 C0.13348553 80.13004544 0.13445555 78.38509096 0.13571167 76.64013672 C0.13718867 72.97818105 0.13503403 69.31624972 0.13037109 65.65429688 C0.1246738 60.94955508 0.1279528 56.24487032 0.13394356 51.54013062 C0.13754912 47.93546109 0.13641061 44.33080518 0.13381577 40.72613525 C0.13314648 38.99090569 0.13397496 37.25567491 0.13629532 35.52044678 C0.13882177 33.09953513 0.13498138 30.67871714 0.12939453 28.2578125 C0.13141876 27.53362122 0.13344299 26.80942993 0.13552856 26.06329346 C0.4099048 22.74845909 0.4099048 22.74845909 -1 20 C-1.09860131 18.59651265 -1.13078937 17.18819523 -1.1328125 15.78125 C-1.13410156 14.93175781 -1.13539063 14.08226562 -1.13671875 13.20703125 C-1.13285156 12.31371094 -1.12898437 11.42039063 -1.125 10.5 C-1.12886719 9.60667969 -1.13273438 8.71335938 -1.13671875 7.79296875 C-1.13542969 6.94347656 -1.13414062 6.09398437 -1.1328125 5.21875 C-1.13168457 4.43435547 -1.13055664 3.64996094 -1.12939453 2.84179688 C-1 1 -1 1 0 0 Z " fill="#E8CC47" transform="translate(174,163)"/>
<path d="M0 0 C1.4606285 2.64738916 2 3.89448334 2 7 C2.66 7.33 3.32 7.66 4 8 C4.26446049 9.95039614 4.52277441 11.90211991 4.73046875 13.859375 C5.10146308 16.80582272 5.75058288 19.30388938 7 22 C9.03243548 22.96877057 9.03243548 22.96877057 11 23 C11.66 25.31 12.32 27.62 13 30 C11.68 30 10.36 30 9 30 C9 30.99 9 31.98 9 33 C9.66 33 10.32 33 11 33 C10.938125 34.175625 10.87625 35.35125 10.8125 36.5625 C10.7958922 39.69030219 11.18852083 41.9115404 12.5 44.75 C14 48 14 48 14 52 C14.66 52 15.32 52 16 52 C16.33 55.63 16.66 59.26 17 63 C8.82344782 50.73517172 6.33272886 33.04664811 3 18.75 C2.76985703 17.77176773 2.76985703 17.77176773 2.5350647 16.77377319 C-0.18910687 5.11770457 -0.18910687 5.11770457 0 0 Z " fill="#F1CE24" transform="translate(3,124)"/>
<path d="M0 0 C3.89986726 3.35569974 5.45024635 5.94325866 5.96875 11.12109375 C6.17977442 18.1640338 5.78267137 23.75878473 1 29.25 C0.566875 29.600625 0.13375 29.95125 -0.3125 30.3125 C-0.3125 28.6625 -0.3125 27.0125 -0.3125 25.3125 C0.3475 25.3125 1.0075 25.3125 1.6875 25.3125 C1.85427282 21.89593976 1.85427282 21.89593976 1.6875 18.3125 C1.0275 17.6525 0.3675 16.9925 -0.3125 16.3125 C-0.2890625 13.0546875 -0.2890625 13.0546875 0.0625 9.1875 C0.17335938 7.90617187 0.28421875 6.62484375 0.3984375 5.3046875 C0.49382812 4.31726563 0.58921875 3.32984375 0.6875 2.3125 C-7.78447532 0.08104222 -15.63996239 0.35866761 -24.3125 1.3125 C-16.43348207 -2.893192 -8.15254322 -4.15318239 0 0 Z " fill="#F2CE1C" transform="translate(344.3125,362.6875)"/>
<path d="M0 0 C0 0.33 0 0.66 0 1 C-1.47906892 1.02689216 -2.95827483 1.04634621 -4.4375 1.0625 C-5.67306641 1.07990234 -5.67306641 1.07990234 -6.93359375 1.09765625 C-9 1 -9 1 -10 0 C-12.22083169 -0.10033593 -14.44487255 -0.13081498 -16.66796875 -0.1328125 C-17.67661736 -0.13424759 -17.67661736 -0.13424759 -18.7056427 -0.13571167 C-20.13392225 -0.13639376 -21.56220488 -0.13453749 -22.99047852 -0.13037109 C-25.16104263 -0.12506468 -27.33139585 -0.13029333 -29.50195312 -0.13671875 C-30.89062545 -0.13605716 -32.27929765 -0.13477432 -33.66796875 -0.1328125 C-35.55938599 -0.13112061 -35.55938599 -0.13112061 -37.48901367 -0.12939453 C-40.7584265 -0.00890299 -43.78431539 0.43324566 -47 1 C-48.5063822 1.07328601 -50.01531325 1.10858469 -51.5234375 1.09765625 C-52.31621094 1.09443359 -53.10898438 1.09121094 -53.92578125 1.08789062 C-54.73402344 1.07951172 -55.54226562 1.07113281 -56.375 1.0625 C-57.20644531 1.05798828 -58.03789062 1.05347656 -58.89453125 1.04882812 C-60.92971897 1.03713164 -62.96486923 1.01919935 -65 1 C-65 0.67 -65 0.34 -65 0 C-43.41258639 -3.49965544 -21.41966258 -5.43580561 0 0 Z " fill="#E9CD43" transform="translate(290,358)"/>
<path d="M0 0 C17.46679029 0.41353683 34.66445414 1.83890169 52 4 C52 4.33 52 4.66 52 5 C49.18743719 5.02684312 46.37512759 5.04676188 43.5625 5.0625 C42.76005859 5.07087891 41.95761719 5.07925781 41.13085938 5.08789062 C39.08704779 5.0965143 37.04316098 5.0522815 35 5 C34.505 4.505 34.505 4.505 34 4 C32.54251096 3.95038335 31.08289172 3.96411343 29.625 4 C24.09616139 4.03642186 18.58608352 3.91033534 13.0625 3.6875 C12.23379395 3.66494141 11.40508789 3.64238281 10.55126953 3.61914062 C9.36766846 3.5659668 9.36766846 3.5659668 8.16015625 3.51171875 C7.45511963 3.48553467 6.75008301 3.45935059 6.02368164 3.43237305 C3.45507417 2.88357297 1.98675101 1.67620792 0 0 Z " fill="#EACD48" transform="translate(362,34)"/>
<path d="M0 0 C1.9375 0.75 1.9375 0.75 4 2 C4.3721042 3.32303717 4.70630173 4.65737935 5 6 C5.99 6.66 6.98 7.32 8 8 C8 9.32 8 10.64 8 12 C8.66 12 9.32 12 10 12 C13 16.38461538 13 16.38461538 13 19 C14.32 18.67 15.64 18.34 17 18 C17.28875 19.19625 17.5775 20.3925 17.875 21.625 C18.7524334 25.14726836 19.80020637 28.57201821 21 32 C15.81961396 27.42152548 12.46076752 21.82502901 8.8125 16 C8.18408203 15.01515625 7.55566406 14.0303125 6.90820312 13.015625 C4.21461317 8.75197459 1.75741313 4.74453718 0 0 Z " fill="#EACF43" transform="translate(125,370)"/>
<path d="M0 0 C0 0.66 0 1.32 0 2 C-14.70373714 3.96283499 -29.1777261 4.23599456 -44 4 C-44 3.67 -44 3.34 -44 3 C-9.75978136 -0.19519563 -9.75978136 -0.19519563 0 0 Z " fill="#ECD045" transform="translate(128,13)"/>
<path d="M0 0 C-0.59167969 0.18175781 -1.18335938 0.36351563 -1.79296875 0.55078125 C-2.58316406 0.80214844 -3.37335938 1.05351562 -4.1875 1.3125 C-4.96480469 1.55613281 -5.74210937 1.79976562 -6.54296875 2.05078125 C-9.04323837 2.92238075 -9.04323837 2.92238075 -11.234375 4.43359375 C-15.01006685 6.57208589 -18.89313585 7.61259477 -23.0625 8.75 C-24.26616211 9.09998047 -24.26616211 9.09998047 -25.49414062 9.45703125 C-26.27080078 9.67230469 -27.04746094 9.88757812 -27.84765625 10.109375 C-28.54898682 10.30499023 -29.25031738 10.50060547 -29.97290039 10.70214844 C-32.26173774 11.03845839 -33.8125695 10.69835767 -36 10 C-5.72941974 -1.85783906 -5.72941974 -1.85783906 0 0 Z " fill="#EECD40" transform="translate(84,18)"/>
<path d="M0 0 C1.890625 0.6796875 1.890625 0.6796875 4 2 C5.046875 4.3828125 5.046875 4.3828125 5.75 7.125 C5.99234375 8.03507813 6.2346875 8.94515625 6.484375 9.8828125 C6.73960938 10.93082031 6.73960938 10.93082031 7 12 C7.66 12 8.32 12 9 12 C9.39058594 12.85464844 9.78117187 13.70929688 10.18359375 14.58984375 C12.47738731 18.89625617 15.35491232 22.45573598 18.41601562 26.23242188 C20.89947723 29.36180623 22.74609932 32.19579284 24 36 C20.11264161 32.29475209 16.84947074 28.39841664 13.6875 24.0625 C13.21401123 23.41514893 12.74052246 22.76779785 12.25268555 22.10083008 C0 5.05119025 0 5.05119025 0 0 Z " fill="#E9CF47" transform="translate(40,233)"/>
<path d="M0 0 C0.97582031 0.00902344 1.95164063 0.01804688 2.95703125 0.02734375 C4.06111328 0.04474609 4.06111328 0.04474609 5.1875 0.0625 C5.1875 0.7225 5.1875 1.3825 5.1875 2.0625 C3.81464844 2.15337891 3.81464844 2.15337891 2.4140625 2.24609375 C1.22554687 2.32988281 0.03703125 2.41367187 -1.1875 2.5 C-2.96253906 2.62181641 -2.96253906 2.62181641 -4.7734375 2.74609375 C-7.72768901 2.87334936 -7.72768901 2.87334936 -9.8125 4.0625 C-12.92519291 4.37682523 -16.03867578 4.57339874 -19.16015625 4.78125 C-21.73255405 4.77301998 -21.73255405 4.77301998 -22.8125 6.0625 C-25.48308851 6.20365161 -28.13682238 6.10497107 -30.8125 6.0625 C-27.08369754 3.82521853 -23.09523279 3.22709571 -18.875 2.5 C-17.47001941 2.24888065 -16.06507074 1.99758266 -14.66015625 1.74609375 C-13.39042969 1.52050781 -12.12070313 1.29492188 -10.8125 1.0625 C-9.94109375 0.86914062 -9.0696875 0.67578125 -8.171875 0.4765625 C-5.40913569 -0.0082891 -2.80299603 -0.03377104 0 0 Z " fill="#E9CE47" transform="translate(191.8125,0.9375)"/>
<path d="M0 0 C1.75 0.0625 1.75 0.0625 4 1 C5.07418656 2.70606101 6.14740726 4.41851823 7.0703125 6.2109375 C8.7922797 9.52463908 9.55429779 10.83063316 13.125 12.1875 C14.07375 12.455625 15.0225 12.72375 16 13 C16 15.64 16 18.28 16 21 C11.85426771 17.0892178 8.51809556 12.86569853 5.1875 8.25 C4.68541016 7.56550781 4.18332031 6.88101562 3.66601562 6.17578125 C0 1.13812713 0 1.13812713 0 0 Z " fill="#EBCF3E" transform="translate(64,269)"/>
<path d="M0 0 C0.99 0.33 1.98 0.66 3 1 C-17.63334327 11.71290226 -17.63334327 11.71290226 -25 11 C-25 10.34 -25 9.68 -25 9 C-22.69 9 -20.38 9 -18 9 C-18 8.34 -18 7.68 -18 7 C-16.35 7 -14.7 7 -13 7 C-13 6.34 -13 5.68 -13 5 C-11.783125 4.731875 -10.56625 4.46375 -9.3125 4.1875 C-6.49060581 3.49947633 -4.72508027 2.83504816 -2.1875 1.3125 C-1.465625 0.879375 -0.74375 0.44625 0 0 Z " fill="#E8CD43" transform="translate(473,224)"/>
<path d="M0 0 C0.84256348 0.24447876 0.84256348 0.24447876 1.70214844 0.49389648 C4.13553181 1.02985098 6.27622228 1.11361396 8.765625 1.09765625 C9.65507812 1.09443359 10.54453125 1.09121094 11.4609375 1.08789062 C12.38132812 1.07951172 13.30171875 1.07113281 14.25 1.0625 C15.65378906 1.05573242 15.65378906 1.05573242 17.0859375 1.04882812 C19.39069041 1.03706918 21.69531227 1.02063426 24 1 C19.45895386 4.02736409 16.4049981 4.1531926 11.0625 4.125 C10.33353516 4.12886719 9.60457031 4.13273437 8.85351562 4.13671875 C5.64142264 4.1308304 3.0678556 4.02261853 0 3 C0 2.01 0 1.02 0 0 Z " fill="#E9CD43" transform="translate(296,363)"/>
<path d="M0 0 C1.2375 1.0209375 1.2375 1.0209375 2.5 2.0625 C2.5 2.7225 2.5 3.3825 2.5 4.0625 C1.84 4.0625 1.18 4.0625 0.5 4.0625 C0.5 3.4025 0.5 2.7425 0.5 2.0625 C-7.97197532 -0.16895778 -15.82746239 0.10866761 -24.5 1.0625 C-16.85139276 -3.02020252 -7.73156763 -4.83449311 0 0 Z " fill="#E5CC46" transform="translate(344.5,362.9375)"/>
<path d="M0 0 C0.66 0.33 1.32 0.66 2 1 C3.96157909 6.88473727 4.05925681 14.26349252 1.6875 20.0625 C0.28605654 22.50204973 -0.8300539 24.24337697 -3 26 C-3 24.35 -3 22.7 -3 21 C-2.34 21 -1.68 21 -1 21 C1.0586053 13.66621862 1.47455301 7.55708419 0 0 Z " fill="#E9CD43" transform="translate(347,367)"/>
<path d="M0 0 C0.66 0 1.32 0 2 0 C2.4813341 1.72856459 2.95996971 3.45788071 3.4375 5.1875 C3.70433594 6.15042969 3.97117187 7.11335937 4.24609375 8.10546875 C4.92880018 10.72663697 5.49892195 13.338935 6 16 C6.66 16 7.32 16 8 16 C8.33 19.63 8.66 23.26 9 27 C7.13646868 24.20470302 6.27476288 22.12771967 5.2734375 18.96484375 C4.9640625 17.99095703 4.6546875 17.01707031 4.3359375 16.01367188 C4.01882812 14.99853516 3.70171875 13.98339844 3.375 12.9375 C3.05015625 11.91849609 2.7253125 10.89949219 2.390625 9.84960938 C0 2.27092634 0 2.27092634 0 0 Z " fill="#ECCF47" transform="translate(11,160)"/>
<path d="M0 0 C0.33 0.66 0.66 1.32 1 2 C0.0625 4.625 0.0625 4.625 -1 7 C-1.99 6.67 -2.98 6.34 -4 6 C-3.896875 6.721875 -3.79375 7.44375 -3.6875 8.1875 C-4.1285967 12.1573703 -6.00483682 13.50403068 -9 16 C-9.66 16 -10.32 16 -11 16 C-9.66534338 12.22959506 -7.99723337 9.42875097 -5.5 6.3125 C-4.8915625 5.54550781 -4.283125 4.77851562 -3.65625 3.98828125 C-2 2 -2 2 0 0 Z " fill="#EECF3C" transform="translate(15,49)"/>
<path d="M0 0 C1.4606285 2.64738916 2 3.89448334 2 7 C2.66 7.33 3.32 7.66 4 8 C4.37890625 9.8125 4.37890625 9.8125 4.5625 12 C4.62665408 14.78932058 4.62665408 14.78932058 6 17 C6.07205511 18.68608966 6.08386068 20.37500659 6.0625 22.0625 C6.05347656 22.98160156 6.04445313 23.90070313 6.03515625 24.84765625 C6.02355469 25.55792969 6.01195312 26.26820313 6 27 C4.55501021 24.30472732 3.59758076 21.82920025 2.9296875 18.84765625 C2.75566406 18.07099609 2.58164063 17.29433594 2.40234375 16.49414062 C2.14130859 15.29047852 2.14130859 15.29047852 1.875 14.0625 C1.69324219 13.26392578 1.51148438 12.46535156 1.32421875 11.64257812 C0.45532536 7.69989272 -0.24634709 4.06472692 0 0 Z " fill="#ECCF47" transform="translate(3,124)"/>
<path d="M0 0 C0 0.66 0 1.32 0 2 C-0.66 2 -1.32 2 -2 2 C-1.67 3.65 -1.34 5.3 -1 7 C-5.29 7.99 -9.58 8.98 -14 10 C-4.57142857 0 -4.57142857 0 0 0 Z " fill="#EECF37" transform="translate(30,39)"/>
<path d="M0 0 C2.4375 0.6875 2.4375 0.6875 4.4375 1.6875 C3.04417426 5.05470387 1.4585714 6.6734524 -1.5625 8.6875 C-1.85125 7.90375 -2.14 7.12 -2.4375 6.3125 C-3.41162254 3.59078368 -3.41162254 3.59078368 -5.5625 1.6875 C-2.5625 -0.3125 -2.5625 -0.3125 0 0 Z " fill="#EFCD24" transform="translate(310.5625,464.3125)"/>
<path d="M0 0 C3.7874965 -0.20146258 6.30089671 0.33079363 9.75 1.875 C14.46305818 3.87061923 18.98016727 5.02841947 24 6 C24 6.66 24 7.32 24 8 C18.02798909 7.46870624 13.05383257 6.15389059 7.5 3.9375 C6.77296875 3.65583984 6.0459375 3.37417969 5.296875 3.08398438 C3.52808745 2.39741552 1.76356959 1.69986318 0 1 C0 0.67 0 0.34 0 0 Z " fill="#E8CE4A" transform="translate(369,227)"/>
<path d="M0 0 C2.14576637 -0.02685938 4.29162645 -0.04633088 6.4375 -0.0625 C7.63246094 -0.07410156 8.82742187 -0.08570313 10.05859375 -0.09765625 C13 0 13 0 14 1 C16.85877909 1.23701239 19.69883297 1.42219182 22.5625 1.5625 C23.36880859 1.60568359 24.17511719 1.64886719 25.00585938 1.69335938 C27.00368805 1.79975262 29.0018207 1.90040888 31 2 C31 2.33 31 2.66 31 3 C20.46890579 3.1982842 10.34614155 3.31290989 0 1 C0 0.67 0 0.34 0 0 Z " fill="#EBCF49" transform="translate(243,205)"/>
<path d="M0 0 C11.81860465 2.14883721 11.81860465 2.14883721 15 6 C15.66 6.33 16.32 6.66 17 7 C17 7.66 17 8.32 17 9 C10.83643195 7.3341708 5.51740344 4.12194714 0 1 C0 0.67 0 0.34 0 0 Z " fill="#EBD042" transform="translate(352,218)"/>
<path d="M0 0 C1.64666203 0.1135629 3.29236082 0.24117381 4.9375 0.375 C5.85402344 0.44460937 6.77054688 0.51421875 7.71484375 0.5859375 C8.84599609 0.79089844 8.84599609 0.79089844 10 1 C10.33 1.66 10.66 2.32 11 3 C12.82510997 3.78015621 14.68606676 4.47795406 16.5625 5.125 C17.57441406 5.47820312 18.58632812 5.83140625 19.62890625 6.1953125 C20.41136719 6.46085938 21.19382813 6.72640625 22 7 C17.44454185 8.47828217 14.15409546 6.88306287 9.875 5.1875 C9.14667969 4.91357422 8.41835937 4.63964844 7.66796875 4.35742188 C2.28148496 2.28148496 2.28148496 2.28148496 0 0 Z " fill="#EBCE45" transform="translate(221,197)"/>
<path d="M0 0 C1.98 0 3.96 0 6 0 C5.67 1.98 5.34 3.96 5 6 C5.66 6 6.32 6 7 6 C7.86375896 7.61992165 8.71575854 9.24611861 9.5625 10.875 C10.03816406 11.77992188 10.51382813 12.68484375 11.00390625 13.6171875 C11.49697266 14.79667969 11.49697266 14.79667969 12 16 C11.67 16.66 11.34 17.32 11 18 C9.72881267 15.93771746 8.45804035 13.87518109 7.1875 11.8125 C6.83107422 11.23435547 6.47464844 10.65621094 6.10742188 10.06054688 C4.05005201 6.71968022 2.0111754 3.36887741 0 0 Z " fill="#EACE43" transform="translate(82,294)"/>
<path d="M0 0 C7.23549488 0.68259386 7.23549488 0.68259386 10 4 C10.99 4.33 11.98 4.66 13 5 C13 5.66 13 6.32 13 7 C13.99 7 14.98 7 16 7 C16 7.66 16 8.32 16 9 C10.0942118 7.44584521 5.02261107 4.40465533 0 1 C0 0.67 0 0.34 0 0 Z " fill="#EDCE3E" transform="translate(205,188)"/>
<path d="M0 0 C-0.5625 1.8125 -0.5625 1.8125 -2 4 C-5.92126804 5.99762711 -9.64917679 7.34078436 -14 8 C-10.30915494 3.86625354 -5.74086742 0 0 0 Z " fill="#E9D13E" transform="translate(44,31)"/>
<path d="M0 0 C0.66 0 1.32 0 2 0 C2.28875 1.19625 2.5775 2.3925 2.875 3.625 C3.7524334 7.14726836 4.80020637 10.57201821 6 14 C-0.90909091 7.27272727 -0.90909091 7.27272727 -1.1875 3.375 C-1 1 -1 1 0 0 Z " fill="#EDCE35" transform="translate(140,388)"/>
<path d="M0 0 C6.83981276 0.51621228 12.63876684 2.48590969 19 5 C19 5.33 19 5.66 19 6 C14.45194365 6.17835515 11.1205746 5.99785435 7 4 C7 3.34 7 2.68 7 2 C4.69 2 2.38 2 0 2 C0 1.34 0 0.68 0 0 Z " fill="#E8CD42" transform="translate(441,45)"/>
<path d="M0 0 C0.99 0.33 1.98 0.66 3 1 C2.773125 1.9075 2.54625 2.815 2.3125 3.75 C1.67394455 6.99503501 1.67394455 6.99503501 3.4375 9.375 C3.953125 9.91125 4.46875 10.4475 5 11 C3.68 11 2.36 11 1 11 C1 10.01 1 9.02 1 8 C0.34 8 -0.32 8 -1 8 C-1.33 5.69 -1.66 3.38 -2 1 C-1.34 0.67 -0.68 0.34 0 0 Z " fill="#EBCD30" transform="translate(340,393)"/>
<path d="M0 0 C0 4.24645065 -1.81750806 6.38524772 -4 10 C-4.33 9.34 -4.66 8.68 -5 8 C-5.99 8.33 -6.98 8.66 -8 9 C-7.67 7.35 -7.34 5.7 -7 4 C-6.01 4 -5.02 4 -4 4 C-1.81222534 2.0624994 -1.81222534 2.0624994 0 0 Z " fill="#F0CD32" transform="translate(330,438)"/>
<path d="M0 0 C3 3.625 3 3.625 3 7 C3.66 7 4.32 7 5 7 C6.42258812 10.82320557 7.24042276 13.91281305 7 18 C4.43320517 15.43320517 3.66651446 12.94989318 2.375 9.5625 C1.92898437 8.40878906 1.48296875 7.25507813 1.0234375 6.06640625 C0 3 0 3 0 0 Z " fill="#EACF46" transform="translate(20,187)"/>
<path d="M0 0 C3.00221784 4.50332676 4.31896025 8.57767579 4 14 C3.34 14 2.68 14 2 14 C-0.28062828 10.57905758 -0.21925007 9.31812778 -0.125 5.3125 C-0.10695313 4.31863281 -0.08890625 3.32476562 -0.0703125 2.30078125 C-0.04710937 1.54152344 -0.02390625 0.78226562 0 0 Z " fill="#ECD13C" transform="translate(520,104)"/>
<path d="M0 0 C5.56890517 0.47986031 10.67067568 1.29915181 16 3 C16 3.33 16 3.66 16 4 C8.57142857 4.14285714 8.57142857 4.14285714 5 3 C4.67 3.66 4.34 4.32 4 5 C3.67 4.34 3.34 3.68 3 3 C2.01 2.67 1.02 2.34 0 2 C0 1.34 0 0.68 0 0 Z " fill="#EDCE3D" transform="translate(425,41)"/>
<path d="M0 0 C4.05819183 0.65503282 7.53971282 1.94559121 11.3125 3.5625 C12.38113281 4.01753906 13.44976562 4.47257812 14.55078125 4.94140625 C15.76314453 5.46541016 15.76314453 5.46541016 17 6 C17 6.33 17 6.66 17 7 C10.50857435 6.57664615 5.66507011 4.08900201 0 1 C0 0.67 0 0.34 0 0 Z " fill="#E8CD47" transform="translate(320,13)"/>
<path d="M0 0 C0.99 0.33 1.98 0.66 3 1 C3 1.99 3 2.98 3 4 C3.66 4 4.32 4 5 4 C5.53229326 5.26607607 6.05044544 6.53810412 6.5625 7.8125 C6.85253906 8.52019531 7.14257812 9.22789062 7.44140625 9.95703125 C8 12 8 12 7 15 C5.82823482 12.87767021 4.66245215 10.75242209 3.5 8.625 C3.16613281 8.02171875 2.83226563 7.4184375 2.48828125 6.796875 C0 2.2265625 0 2.2265625 0 0 Z " fill="#EBCE43" transform="translate(94,312)"/>
<path d="M0 0 C0.66 0 1.32 0 2 0 C0.51194289 5.80342274 -2.59097555 10.17590879 -6 15 C-6.66 14.01 -7.32 13.02 -8 12 C-7.01 11.67 -6.02 11.34 -5 11 C-5 9.68 -5 8.36 -5 7 C-4.01 6.34 -3.02 5.68 -2 5 C-0.79549696 2.44816596 -0.79549696 2.44816596 0 0 Z " fill="#EBCF45" transform="translate(513,182)"/>
<path d="M0 0 C5.56890517 0.47986031 10.67067568 1.29915181 16 3 C16 3.33 16 3.66 16 4 C12.7 4.33 9.4 4.66 6 5 C6 4.34 6 3.68 6 3 C4.02 2.34 2.04 1.68 0 1 C0 0.67 0 0.34 0 0 Z " fill="#EBCC3C" transform="translate(298,7)"/>
<path d="M0 0 C4.875 1.875 4.875 1.875 6 3 C7.99958364 3.04080783 10.00045254 3.04254356 12 3 C12.66 4.98 13.32 6.96 14 9 C10.40241608 7.67726488 7.36262865 6.0805802 4.1875 3.9375 C3.39730469 3.41027344 2.60710937 2.88304687 1.79296875 2.33984375 C1.20128906 1.89769531 0.60960937 1.45554687 0 1 C0 0.67 0 0.34 0 0 Z " fill="#E8CE40" transform="translate(185,440)"/>
<path d="M0 0 C0.66 0 1.32 0 2 0 C2 0.66 2 1.32 2 2 C2.66 2 3.32 2 4 2 C4 3.32 4 4.64 4 6 C5.32 6.33 6.64 6.66 8 7 C8 9.31 8 11.62 8 14 C5.66635648 11.07096942 3.95039164 8.11431797 2.3125 4.75 C1.65701172 3.41195313 1.65701172 3.41195313 0.98828125 2.046875 C0.66214844 1.37140625 0.33601563 0.6959375 0 0 Z " fill="#EDCE41" transform="translate(117,356)"/>
<path d="M0 0 C0 3.57575896 -1.08840607 5.05295935 -3 8 C-4.9375 7.25 -4.9375 7.25 -7 6 C-7.75 3.875 -7.75 3.875 -8 2 C-7.34 2 -6.68 2 -6 2 C-6 2.66 -6 3.32 -6 4 C-4.02 2.68 -2.04 1.36 0 0 Z " fill="#F2CD28" transform="translate(45,226)"/>
<path d="M0 0 C4.87207759 2.01603211 6.83841857 5.34428616 9 10 C5.78956118 8.61811547 3.95063635 7.07578097 1.75 4.375 C1.22921875 3.74335938 0.7084375 3.11171875 0.171875 2.4609375 C-0.21484375 1.97882813 -0.6015625 1.49671875 -1 1 C-0.67 0.67 -0.34 0.34 0 0 Z " fill="#ECCF39" transform="translate(161,418)"/>
<path d="M0 0 C-0.33 0.99 -0.66 1.98 -1 3 C-1.33 2.67 -1.66 2.34 -2 2 C-6.58477988 2.44948822 -10.6789261 3.4191193 -15 5 C-14.67 3.68 -14.34 2.36 -14 1 C-9.32798795 -0.20568053 -4.78503708 -0.09382426 0 0 Z " fill="#E9CD3F" transform="translate(320,191)"/>
<path d="M0 0 C1.33333333 2.66666667 2.66666667 5.33333333 4 8 C0.4213696 6.34832443 -2.74820188 4.21713508 -6 2 C-2.25 0 -2.25 0 0 0 Z " fill="#ECCD39" transform="translate(198,178)"/>
<path d="M0 0 C2.64 0 5.28 0 8 0 C7.01 1.485 7.01 1.485 6 3 C6.33 3.66 6.66 4.32 7 5 C4.69 5 2.38 5 0 5 C0 3.35 0 1.7 0 0 Z " fill="#EDCC2D" transform="translate(208,361)"/>
<path d="M0 0 C1.32 0 2.64 0 4 0 C5.125 5.625 5.125 5.625 4 9 C0 2.25 0 2.25 0 0 Z " fill="#EAD036" transform="translate(112,346)"/>
<path d="M0 0 C3.28465896 2.79196011 5.01321958 6.23196817 7 10 C7 10.66 7 11.32 7 12 C5.68 12.33 4.36 12.66 3 13 C3.020625 12.2575 3.04125 11.515 3.0625 10.75 C3.00671312 8.29537721 2.6930096 6.33890739 2 4 C1.34 4 0.68 4 0 4 C0 2.68 0 1.36 0 0 Z " fill="#E6CE41" transform="translate(184,328)"/>
<path d="M0 0 C1.37432457 3.81756824 0.67975039 7.07255329 0 11 C-0.99 11 -1.98 11 -3 11 C-2.69078116 9.54096742 -2.37751201 8.08279278 -2.0625 6.625 C-1.88847656 5.81289062 -1.71445312 5.00078125 -1.53515625 4.1640625 C-1 2 -1 2 0 0 Z " fill="#EDD140" transform="translate(3,65)"/>
<path d="M0 0 C1.65 0 3.3 0 5 0 C5.66 2.97 6.32 5.94 7 9 C4.03595495 6.19195732 1.55500981 3.81684226 0 0 Z " fill="#EFCF3D" transform="translate(146,402)"/>
<path d="M0 0 C0 0.99 0 1.98 0 3 C0.99 3.33 1.98 3.66 3 4 C1 5 1 5 -0.9453125 4.44140625 C-1.66460937 4.15136719 -2.38390625 3.86132812 -3.125 3.5625 C-3.84945312 3.27503906 -4.57390625 2.98757813 -5.3203125 2.69140625 C-6.15175781 2.34916016 -6.15175781 2.34916016 -7 2 C-4.35261084 0.5393715 -3.10551666 0 0 0 Z " fill="#EECE3B" transform="translate(228,458)"/>
<path d="M0 0 C1.65 0 3.3 0 5 0 C3.73058503 3.91402949 2.48832306 5.79072873 -1 8 C-1 7.01 -1 6.02 -1 5 C-0.34 5 0.32 5 1 5 C1.33 3.68 1.66 2.36 2 1 C1.34 0.67 0.68 0.34 0 0 Z " fill="#ECCF3C" transform="translate(340,418)"/>
<path d="M0 0 C2.31 0.33 4.62 0.66 7 1 C7.66 2.65 8.32 4.3 9 6 C5.06326356 4.68775452 2.77280706 3.08089673 0 0 Z " fill="#EDCE3F" transform="translate(343,212)"/>
<path d="M0 0 C3.44216672 2.6598561 3.99504674 5.90288286 5 10 C3.5 8.625 3.5 8.625 2 7 C2 6.34 2 5.68 2 5 C1.34 5 0.68 5 0 5 C0 3.35 0 1.7 0 0 Z " fill="#EACF44" transform="translate(515,94)"/>
<path d="M0 0 C1.1725131 0.95117134 2.33787015 1.91117009 3.5 2.875 C4.47453125 3.67550781 4.47453125 3.67550781 5.46875 4.4921875 C5.9740625 4.98976563 6.479375 5.48734375 7 6 C7 6.66 7 7.32 7 8 C6.34 8 5.68 8 5 8 C5 7.34 5 6.68 5 6 C3.68 5.67 2.36 5.34 1 5 C0.67 3.35 0.34 1.7 0 0 Z " fill="#E9CD46" transform="translate(500,75)"/>
<path d="M0 0 C1.65 0 3.3 0 5 0 C5.66 1.98 6.32 3.96 7 6 C3.63279613 4.60667426 2.0140476 3.0210714 0 0 Z " fill="#ECCF3C" transform="translate(179,168)"/>
<path d="M0 0 C3.91402949 1.26941497 5.79072873 2.51167694 8 6 C6.68 6 5.36 6 4 6 C0 1.66666667 0 1.66666667 0 0 Z " fill="#E9CE41" transform="translate(488,66)"/>
<path d="M0 0 C1.98 0 3.96 0 6 0 C4.3545622 1.68762851 2.68711423 3.3540349 1 5 C0.67 5 0.34 5 0 5 C0 3.35 0 1.7 0 0 Z " fill="#EDCE38" transform="translate(488,211)"/>
</svg>
