<?xml version="1.0" encoding="UTF-8"?>
<svg version="1.1" xmlns="http://www.w3.org/2000/svg" width="525" height="476">
<path d="M0 0 C44.77235944 25.76798638 68.84866889 71.12194644 91.7331543 115.56030273 C96.6378013 125.04130609 101.86224823 134.29788008 107.375 143.4375 C107.91423096 144.34121338 107.91423096 144.34121338 108.46435547 145.26318359 C117.18369199 159.77615403 127.95877659 173.01195824 138.57446289 186.16479492 C174.35027272 231.3223561 196.17998847 301.07072434 196.75 358.625 C196.76409912 359.65294678 196.77819824 360.68089355 196.79272461 361.73999023 C196.73584542 370.55914416 195.13084521 378.37021168 190.3125 385.875 C189.55259766 387.07962891 189.55259766 387.07962891 188.77734375 388.30859375 C187.6487683 390.02189075 186.51302381 391.73046428 185.375 393.4375 C184.715 393.4375 184.055 393.4375 183.375 393.4375 C182.715 394.7575 182.055 396.0775 181.375 397.4375 C180.715 397.4375 180.055 397.4375 179.375 397.4375 C179.375 398.0975 179.375 398.7575 179.375 399.4375 C175.92184869 402.38548087 172.11740895 404.87283579 168.375 407.4375 C167.46878906 408.08203125 166.56257813 408.7265625 165.62890625 409.390625 C151.22541087 419.00598419 133.26119299 425.71200898 116.375 429.4375 C115.66021484 429.59669922 114.94542969 429.75589844 114.20898438 429.91992188 C105.09981102 431.77251661 95.87909229 432.28369784 86.625 432.9375 C70.20885681 434.10731939 54.4193144 435.684464 38.4375 439.875 C25.48119205 443.13951532 12.66749144 445.20423813 -0.625 446.4375 C-1.49680908 446.5303125 -2.36861816 446.623125 -3.2668457 446.71875 C-13.05617655 447.67890856 -22.86018715 447.6810673 -32.6875 447.6875 C-33.61674286 447.68817474 -34.54598572 447.68884949 -35.50338745 447.68954468 C-72.17525123 447.64741076 -109.28374858 442.39050159 -142.625 426.4375 C-143.25164551 426.14198242 -143.87829102 425.84646484 -144.52392578 425.54199219 C-151.27964222 422.34163985 -157.76096142 418.95977616 -163.85546875 414.6015625 C-166.78677132 412.67324425 -169.3671933 412.30824208 -172.78125 412.2265625 C-173.62478027 412.20045898 -174.46831055 412.17435547 -175.33740234 412.14746094 C-176.25730957 412.11942383 -177.1772168 412.09138672 -178.125 412.0625 C-224.22362641 410.2354437 -276.22182235 401.2405218 -309.625 366.4375 C-317.1617419 357.71602565 -322.10847632 348.37005877 -325.625 337.4375 C-325.96402344 336.38820313 -326.30304688 335.33890625 -326.65234375 334.2578125 C-333.19386409 309.5989939 -328.20526547 282.14414801 -315.8125 260.1875 C-311.91063771 253.64680599 -307.67569249 247.15882386 -302.625 241.4375 C-301.965 241.4375 -301.305 241.4375 -300.625 241.4375 C-299.635 239.4575 -299.635 239.4575 -298.625 237.4375 C-297.965 237.4375 -297.305 237.4375 -296.625 237.4375 C-296.625 236.7775 -296.625 236.1175 -296.625 235.4375 C-273.5078125 215.03001946 -243.90240178 207.82908509 -213.625 209.4375 C-207.86277817 209.98273987 -202.25168776 211.1058817 -196.625 212.4375 C-195.94937012 212.5931543 -195.27374023 212.74880859 -194.57763672 212.90917969 C-171.14952011 218.49979003 -149.13337782 231.11085756 -131.4375 247.34765625 C-130.8698291 247.8569165 -130.3021582 248.36617676 -129.71728516 248.89086914 C-128.59684406 249.899967 -127.49135621 250.92599409 -126.40380859 251.97045898 C-123.57901023 254.50098919 -122.04299054 255.43128275 -118.2109375 255.48828125 C-114.11284289 254.28742346 -110.618739 252.64689266 -106.875 250.625 C-100.60046331 247.37126861 -94.41770523 244.47316876 -87.625 242.4375 C-86.52285156 242.10105469 -86.52285156 242.10105469 -85.3984375 241.7578125 C-60.04111299 235.39669673 -33.57104318 244.51601409 -11.78808594 257.13085938 C-1.25784199 263.49179229 8.29220169 270.83657012 17.15234375 279.35546875 C19.19299083 281.4652805 19.19299083 281.4652805 21.375 282.4375 C21.375 283.0975 21.375 283.7575 21.375 284.4375 C22.035 284.4375 22.695 284.4375 23.375 284.4375 C23.045 283.4475 22.715 282.4575 22.375 281.4375 C22.14153797 278.92737754 21.95733037 276.43892724 21.82080078 273.92333984 C21.77869036 273.17111837 21.73657993 272.4188969 21.69319344 271.64388084 C21.24698254 262.98504525 21.23009507 254.3322125 21.2421875 245.6640625 C21.24151122 243.92109158 21.24053852 242.17812075 21.23928833 240.43515015 C21.23782892 236.81662074 21.23991014 233.19811631 21.24462891 229.57958984 C21.25035098 224.97045742 21.24702036 220.36138293 21.24105644 215.75225258 C21.23742492 212.16608247 21.23860084 208.57992588 21.24118423 204.99375534 C21.24184501 203.29470182 21.24105525 201.59564702 21.23870468 199.896595 C21.22910529 191.01989075 21.42808758 182.2729156 22.375 173.4375 C23.11902447 159.92806818 23.11907431 147.24230233 18.375 134.4375 C18.0049585 133.4158374 18.0049585 133.4158374 17.62744141 132.37353516 C12.7352652 119.04843644 6.25691358 107.44740986 -2.9609375 96.55859375 C-4.51134012 94.58237633 -5.59956854 92.72141553 -6.625 90.4375 C-7.285 90.4375 -7.945 90.4375 -8.625 90.4375 C-10.00732443 88.81123596 -11.34437515 87.1449998 -12.625 85.4375 C-18.04146691 86.32458996 -23.45561961 87.21933196 -28.85546875 88.203125 C-29.5832251 88.33485107 -30.31098145 88.46657715 -31.06079102 88.60229492 C-32.47723975 88.85961565 -33.89313816 89.11999245 -35.30834961 89.3840332 C-52.85875964 92.5610999 -80.17193309 96.30514181 -96.25 86.90234375 C-97.425625 86.08443359 -97.425625 86.08443359 -98.625 85.25 C-105.52561577 80.63038911 -114.00497756 81.35246425 -121.87841797 82.87255859 C-124.83889027 83.54195463 -127.77507486 84.25256998 -130.68969727 85.10107422 C-136.6234861 86.76163592 -141.63640101 86.69935291 -147.4375 84.25 C-151.11353095 81.20414579 -152.42694974 78.39087244 -152.91015625 73.625 C-153.16457485 64.77565727 -151.15322261 58.90107837 -145.515625 52.11328125 C-144.42683256 50.44471036 -144.42683256 50.44471036 -144.85546875 48.36328125 C-145.56741228 46.22720471 -145.56741228 46.22720471 -147.6875 44.3125 C-150.5546149 40.05807144 -150.59137794 36.41921576 -149.625 31.4375 C-148.05001276 28.10328172 -145.87644529 25.34484155 -143.625 22.4375 C-134.81983538 10.2706737 -127.25206395 -2.55903043 -120.3125 -15.875 C-117.48373937 -21.09483338 -114.5737003 -25.35697723 -108.8828125 -27.68359375 C-77.46814866 -36.15877284 -27.27589839 -15.11938258 0 0 Z " fill="#45474B" transform="translate(328.625,28.5625)"/>
</svg>
