<?xml version="1.0" encoding="UTF-8"?>
<svg version="1.1" xmlns="http://www.w3.org/2000/svg" width="525" height="476">
<path d="M0 0 C3.55514259 0.0171077 7.10961216 0.00690421 10.66473198 -0.01031399 C31.52068071 -0.09612061 51.61683512 1.29050271 71.95239258 6.20361328 C73.04318115 6.46368164 74.13396973 6.72375 75.2578125 6.99169922 C96.32589236 12.13577939 116.07733784 20.00705527 134.30395508 31.89501953 C138.24183926 34.35138702 141.49039943 34.57587408 146.04614258 34.78564453 C147.9894043 34.88474121 147.9894043 34.88474121 149.97192383 34.98583984 C151.00567139 35.0381073 151.00567139 35.0381073 152.06030273 35.09143066 C197.95850389 37.49514886 248.82339481 46.23886272 281.70239258 81.39111328 C289.22855015 90.06045155 294.25332417 99.44964289 297.70239258 110.39111328 C297.89526855 110.99536133 298.08814453 111.59960938 298.28686523 112.22216797 C300.2756076 119.53606466 300.07454098 127.10515266 300.07299805 134.62695312 C300.07734546 136.99049406 300.11367781 139.35212312 300.15161133 141.71533203 C300.34888397 168.43834919 288.17051848 191.91977559 270.11254883 211.14892578 C248.64244863 231.74730763 219.98988627 239.9938896 190.78051758 239.60595703 C158.1283584 238.60500546 126.34717627 223.3481962 102.51489258 201.48095703 C101.94722168 200.97169678 101.37955078 200.46243652 100.79467773 199.93774414 C99.67423664 198.92864628 98.56874879 197.90261919 97.48120117 196.8581543 C94.78392329 194.44186036 93.14366966 193.4115378 89.49536133 193.24267578 C84.22443212 194.83861109 79.5312871 197.26153664 74.63989258 199.76611328 C54.48470863 209.67126294 33.11226717 211.62181044 11.47094727 204.67480469 C-10.28795581 197.17475113 -31.1584029 184.6402378 -47.44946289 168.25561523 C-47.98441376 167.71830276 -48.51936462 167.1809903 -49.07052612 166.62739563 C-49.47546295 166.21942245 -49.88039978 165.81144928 -50.29760742 165.39111328 C-50.22696075 166.47409195 -50.15631409 167.55707062 -50.08352661 168.67286682 C-49.3909746 179.80739743 -49.14897096 190.88958168 -49.16479492 202.04345703 C-49.16411842 203.76257847 -49.16314555 205.48169981 -49.16189575 207.20082092 C-49.1604378 210.76629567 -49.16251297 214.33174504 -49.16723633 217.8972168 C-49.17296311 222.43793958 -49.16962391 226.97860361 -49.16366386 231.5193243 C-49.16003236 235.05488012 -49.16120818 238.59042222 -49.16379166 242.12597847 C-49.16445219 243.79991221 -49.16366355 245.47384725 -49.1613121 247.14777946 C-49.15246975 255.19888591 -49.21130324 263.17529539 -50.06408691 271.19206238 C-53.13786814 300.13770589 -45.23045204 325.78320887 -27.29760742 348.57861328 C-26.62084961 349.38169922 -25.9440918 350.18478516 -25.24682617 351.01220703 C-23.29760742 353.39111328 -23.29760742 353.39111328 -21.69213867 355.86376953 C-20.03295475 358.25217503 -18.76138486 359.83675275 -16.29760742 361.39111328 C-11.77317053 361.64354967 -7.66913193 360.46914858 -3.29760742 359.39111328 C-0.40901835 358.82755191 2.49003922 358.33039942 5.38989258 357.82861328 C6.4038208 357.63948364 6.4038208 357.63948364 7.43823242 357.4465332 C24.71672617 354.27526953 51.45219499 350.75573549 67.36645508 359.92626953 C68.13731445 360.47154297 68.90817383 361.01681641 69.70239258 361.57861328 C76.25329138 366.02347016 84.1324254 365.37333888 91.70239258 364.39111328 C95.46334954 363.64840667 99.15712237 362.67509887 102.86181641 361.69458008 C108.26729092 360.32397206 112.65247951 359.7578629 117.70239258 362.39111328 C121.8271261 365.72600421 124.42433544 368.83082093 125.00317383 374.16064453 C125.03746051 383.06375401 123.30024365 388.84370064 117.59301758 395.71533203 C116.50422514 397.38390292 116.50422514 397.38390292 116.93286133 399.46533203 C117.64480486 401.60140857 117.64480486 401.60140857 119.76489258 403.51611328 C122.63200748 407.77054184 122.66877052 411.40939753 121.70239258 416.39111328 C120.12740533 419.72533156 117.95383787 422.48377173 115.70239258 425.39111328 C107.46089882 436.7790688 100.48182743 448.78334782 93.65942383 461.06298828 C86.25340713 474.20744177 86.25340713 474.20744177 79.70239258 476.39111328 C64.45884948 477.67700747 50.09936937 476.17384919 35.4128418 472.13525391 C32.66404227 471.38058439 29.90644071 470.67138357 27.14379883 469.96923828 C-11.4187399 460.01445538 -48.65495302 443.31121547 -73.54760742 410.89111328 C-74.24684326 409.98619141 -74.24684326 409.98619141 -74.96020508 409.06298828 C-75.93214899 407.79968958 -76.90105347 406.53404675 -77.86694336 405.26611328 C-78.79201003 404.05373921 -79.72203037 402.84512195 -80.65795898 401.64111328 C-96.54954422 381.1808426 -108.06122167 357.77783257 -120.11547852 334.94824219 C-132.57412092 311.38197651 -145.77179088 289.39709313 -162.86010742 268.89111328 C-198.67780127 225.50166431 -224.9483553 157.93899061 -225.53588867 101.08642578 C-225.54396042 100.32240448 -225.55203217 99.55838318 -225.56034851 98.77120972 C-225.57407958 97.16618038 -225.58484997 95.5611232 -225.59277344 93.95605469 C-225.60430462 92.33291922 -225.62477463 90.709822 -225.65429688 89.08691406 C-225.95048349 72.74866447 -222.46576661 62.42515417 -211.18823242 50.08251953 C-197.14545978 36.49976876 -178.05348434 27.87956721 -159.79760742 21.64111328 C-158.97993896 21.35913086 -158.16227051 21.07714844 -157.31982422 20.78662109 C-143.35038642 16.20270678 -129.36473414 14.77473143 -114.79760742 13.82861328 C-97.01782798 12.63608802 -80.18062744 10.65947109 -62.89526367 6.04541016 C-42.12076716 0.75422624 -21.32640005 -0.10333991 0 0 Z M-37.29760742 86.39111328 C-37.29760742 86.72111328 -37.29760742 87.05111328 -37.29760742 87.39111328 C-29.96681397 86.79022857 -22.76349731 85.71864009 -15.51513672 84.49536133 C23.61389977 78.04534059 64.84611349 84.21800502 99.26098633 104.20361328 C100.06665039 104.59548828 100.87231445 104.98736328 101.70239258 105.39111328 C102.69239258 104.89611328 102.69239258 104.89611328 103.70239258 104.39111328 C63.8858751 71.81396262 9.71475315 70.17489074 -37.29760742 86.39111328 Z " fill="#45464A" transform="translate(225.297607421875,-0.39111328125)"/>
<path d="M0 0 C2.31 0.66 4.62 1.32 7 2 C7 2.33 7 2.66 7 3 C13.93 3.495 13.93 3.495 21 4 C17.31912647 6.45391569 14.55644412 6.22802759 10.3125 6.125 C9.2596582 6.11146484 9.2596582 6.11146484 8.18554688 6.09765625 C6.45688475 6.07413704 4.72839855 6.03826713 3 6 C3 5.34 3 4.68 3 4 C1.68 3.67 0.36 3.34 -1 3 C-0.67 2.01 -0.34 1.02 0 0 Z " fill="#403F43" transform="translate(408,233)"/>
<path d="M0 0 C2.62550296 0.97783539 5.25041505 1.9572063 7.875 2.9375 C8.62136719 3.21529297 9.36773437 3.49308594 10.13671875 3.77929688 C15.7734375 5.88671875 15.7734375 5.88671875 18 7 C17.34 8.32 16.68 9.64 16 11 C15.34 10.01 14.68 9.02 14 8 C13.67 8.66 13.34 9.32 13 10 C12.54625 9.4225 12.0925 8.845 11.625 8.25 C7.87321236 5.03418203 3.61188913 3.65464725 -1 2 C-0.67 1.34 -0.34 0.68 0 0 Z " fill="#3E3D40" transform="translate(319,12)"/>
<path d="M0 0 C-2.24529435 3.36794152 -3.31592186 3.71057265 -7 5 C-7.99 5.495 -7.99 5.495 -9 6 C-9 5.01 -9 4.02 -9 3 C-9.99 3 -10.98 3 -12 3 C-12 2.34 -12 1.68 -12 1 C-7.95858806 0.36605303 -4.0934693 -0.12404452 0 0 Z " fill="#3C3C40" transform="translate(186,2)"/>
<path d="M0 0 C0 3 0 3 -2 6 C-1.62068453 9.03452373 -0.74959319 10.37561021 1 13 C-1.86207152 11.71700242 -4.0245088 10.469364 -6 8 C-6 5 -6 5 -4.6875 3.61328125 C-3.125 2.40885417 -1.5625 1.20442708 0 0 Z " fill="#3F3F42" transform="translate(344,391)"/>
<path d="M0 0 C0.99 0 1.98 0 3 0 C3.02715383 1.74991334 3.04646551 3.49994945 3.0625 5.25 C3.07410156 6.22453125 3.08570313 7.1990625 3.09765625 8.203125 C3.01195577 10.65758678 2.70706066 12.66168914 2 15 C1.34 15 0.68 15 0 15 C0 10.05 0 5.1 0 0 Z " fill="#404043" transform="translate(347,372)"/>
<path d="M0 0 C0 0.99 0 1.98 0 3 C-2.3125 4.75 -2.3125 4.75 -5 6 C-7.99332739 5.0022242 -8.94766315 4.2477975 -11 2 C-9.5422647 1.664061 -8.08378894 1.33133376 -6.625 1 C-5.40683594 0.7215625 -5.40683594 0.7215625 -4.1640625 0.4375 C-2 0 -2 0 0 0 Z M-7 2 C-6 4 -6 4 -6 4 Z " fill="#4D4B50" transform="translate(336,360)"/>
<path d="M0 0 C4.29 0 8.58 0 13 0 C10 2 10 2 7.875 2.5 C7.25625 2.665 6.6375 2.83 6 3 C5.67 3.66 5.34 4.32 5 5 C4.67 4.01 4.34 3.02 4 2 C2.68 2 1.36 2 0 2 C0 1.34 0 0.68 0 0 Z " fill="#39383D" transform="translate(217,82)"/>
<path d="M0 0 C3.43752007 1.5277867 6.18953688 3.50181056 9 6 C9 6.66 9 7.32 9 8 C9.66 8.33 10.32 8.66 11 9 C6.72787882 8.52531987 4.92614175 5.92614175 2 3 C1.01 3 0.02 3 -1 3 C-0.67 2.01 -0.34 1.02 0 0 Z " fill="#3C3B3F" transform="translate(173,162)"/>
<path d="M0 0 C0.66 0 1.32 0 2 0 C2 0.66 2 1.32 2 2 C2.99 2.33 3.98 2.66 5 3 C5 3.99 5 4.98 5 6 C5.99 6.33 6.98 6.66 8 7 C8.33 7.99 8.66 8.98 9 10 C4.71095765 8.4114658 2.67654474 5.56872632 0 2 C0 1.34 0 0.68 0 0 Z " fill="#3F3F42" transform="translate(58,261)"/>
<path d="M0 0 C0 0.66 0 1.32 0 2 C-3.82320557 3.42258812 -6.91281305 4.24042276 -11 4 C-10 2 -10 2 -8.22265625 1.3671875 C-7.50980469 1.20476562 -6.79695312 1.04234375 -6.0625 0.875 C-5.35222656 0.70742187 -4.64195312 0.53984375 -3.91015625 0.3671875 C-2 0 -2 0 0 0 Z " fill="#403E43" transform="translate(200,81)"/>
</svg>
