<?xml version="1.0" encoding="UTF-8"?>
<svg version="1.1" viewBox="0 0 1080 1080" width="270" height="270" xmlns="http://www.w3.org/2000/svg">
<path transform="translate(522,36)" d="m0 0h35l24 3 29 6 21 7 23 10 18 10 18 12 16 13 13 12 9 9 9 11 11 14 13 21 13 27 7 19 6 24 4 26 1 15v16l-2 26-5 25-6 20-7 19-11 23-6 11 115 2 88 2h4l1-63 2-18 5-16 6-9 6-5h7l6 4 7 11 5 17 2 25v55h22l2 1-1 10-1 1h-22v62l-2 21-4 16-6 10-8 7-7-1-8-7-6-12-4-17-1-11-1-68-144-3-27-1-2 6-11 24-15 34-13 30-9 20-18 41-11 25-12 27-18 41-19 43-11 25-18 41-38 86-10 24 28 1 92 7 68 7 37 5 38 7 21 6 16 7 7 6 7 9v8l-8 11-7 7-18 10-24 10-36 12-38 10-44 9-43 7-41 5-50 4-32 1h-36l-34-1-5-1-43-3-47-6-41-7-43-9-27-7-37-12-28-11-17-9-10-8-6-7-5-8v-6l6-9 12-9 15-6 26-6 35-6 48-6 55-5 84-6 19-1h14l-15-35-12-27-13-29-8-18-13-30-20-45-10-23-34-77-10-23-12-27-14-32-20-45-13-30-9-21-1-5h-23l-101-2-30-1-7-1v63l-2 21-5 17-6 9-7 6-7-1-8-7-6-12-4-16-1-12-1-68-30-1-3-5 2-4 7-2 23-1 1-10 1-54 2-17 5-16 6-9 6-5h7l7 5 6 10 4 12 2 12 1 18v55l125 3h71l-14-27-9-21-7-23-4-21-3-22v-34l3-23 5-23 11-33 15-30 8-12 12-16 12-14 7-8 8-7 13-11 15-11 18-11 22-11 21-8 16-5 20-4zm224 390-12 15-9 11-12 12-11 9-15 12-20 12-23 12-23 9-18 5-20 4-19 3-14 1h-22l-21-2-23-4-24-6-13-5-12-5-23-12-19-12-16-13-11-9-14-14-11-14-6-7h-42l5 4 15 11 11 7 20 14 33 22 13 9 15 10 10 7 22 15 71 48 13 9 15 10 5 2 50-34 24-16 14-10 24-16 23-16 27-18 41-28 33-22 9-7v-1l-26-1zm-249 480-53 3-55 4-47 4-44 5-37 5-31 6-21 6-11 6-5 6 2 6 7 7 14 8 21 10 25 9 31 9 28 7 39 8 36 6 39 5 30 3 52 3h52l50-3 57-6 38-6 50-10 38-10 26-8 28-11 20-11 8-7 3-5-2-5-7-6-16-6-26-6-28-5-29-4-65-7-98-8-18-1h-18l-7 14-10 23-12 27-10 23h-2l-10-22-18-41-10-23z" fill="#F3CC20"/>
<path transform="translate(529,197)" d="m0 0h24l18 5 17 8 12 9 7 7 8 11 7 14 4 13 1 6v17l-4 15-6 14-9 12-10 10-15 10-12 6-18 5h-25l-16-4-13-5-13-8-10-9-9-10-9-17-6-21v-13l4-16 5-12 7-12 9-10 8-7 13-8 13-6z" fill="#FEFEFE"/>
</svg>
