<?xml version="1.0" encoding="UTF-8"?>
<svg version="1.1" xmlns="http://www.w3.org/2000/svg" width="1800" height="360">
<path d="M0 0 C3.84491806 3.89301456 5.55944367 8.29213577 7.4609375 13.30859375 C7.93051376 14.51335106 7.93051376 14.51335106 8.40957642 15.7424469 C9.40643653 18.30430638 10.39123772 20.8705859 11.375 23.4375 C12.67078318 26.7918027 13.97147715 30.14418451 15.2734375 33.49609375 C15.58961533 34.31254364 15.90579315 35.12899353 16.23155212 35.97018433 C18.59896272 42.05385363 21.12814339 48.04859273 23.73144531 54.03540039 C25.34786523 57.81295756 26.79825381 61.63427148 28.1875 65.5 C30.78629719 74.19439962 30.78629719 74.19439962 36.57446289 80.60351562 C40.62805615 82.25603886 44.17728101 82.71274343 48.5078125 83.0625 C49.33475616 83.13879135 50.16169983 83.2150827 51.01370239 83.29368591 C52.79204771 83.45584723 54.57091894 83.61232352 56.35021973 83.76364136 C59.15233693 84.00232859 61.95257498 84.25737904 64.75292969 84.51586914 C74.0190258 85.36060212 83.28780816 86.10754429 92.5703125 86.74609375 C95.01745709 86.92208488 97.46451221 87.09928086 99.91156006 87.27661133 C102.20739272 87.43456855 104.50375133 87.56651103 106.80126953 87.69726562 C108.20613285 87.79576644 109.61092317 87.89531617 111.015625 87.99609375 C112.22508789 88.07013428 113.43455078 88.1441748 114.68066406 88.22045898 C119.06785206 89.25078344 120.84059346 90.80946484 124 94 C124.61328125 97.04296875 124.61328125 97.04296875 124 100 C122.41796875 102.23828125 122.41796875 102.23828125 120.1875 104.3125 C119.35863281 105.08722656 118.52976562 105.86195313 117.67578125 106.66015625 C114.21240793 109.68871189 110.67640712 112.60797637 107.0859375 115.484375 C103.49001714 118.41573287 99.99390475 121.44849527 96.5 124.5 C92.19605176 128.25308598 87.87237156 131.96365725 83.4375 135.5625 C79.10698278 139.08023246 74.81827116 142.64243333 70.5625 146.25 C69.97073975 146.7457251 69.37897949 147.2414502 68.76928711 147.75219727 C67.14627191 149.13507602 65.57411284 150.56206331 64 152 C63.16339844 152.69609375 62.32679688 153.3921875 61.46484375 154.109375 C58.94236568 159.08706505 60.74789506 163.75013339 62 169 C62.15416382 169.65579041 62.30832764 170.31158081 62.46716309 170.98724365 C63.70814349 176.2365877 65.03558103 181.46256427 66.375 186.6875 C67.15581293 189.7533581 67.93378142 192.81993187 68.7109375 195.88671875 C68.90236328 196.63992401 69.09378906 197.39312927 69.29101562 198.16915894 C70.80584498 204.15730826 72.23696368 210.16300699 73.61532593 216.18400574 C74.68962248 220.83635673 75.93550863 225.41141534 77.25 230 C78.96302491 236.37136933 80.48721664 242.18900736 78 248.5625 C75.51692681 250.34720885 73.50628822 250.86093223 70.45263672 250.69311523 C67.22508383 249.78100866 65.09813766 248.19410241 62.3828125 246.22265625 C61.2239431 245.39566993 60.06353132 244.57084213 58.90185547 243.74780273 C58.27583435 243.3033078 57.64981323 242.85881287 57.00482178 242.40084839 C53.38972731 239.87483869 49.70142034 237.46021419 46.015625 235.0390625 C45.22364716 234.51811508 44.43166931 233.99716766 43.61569214 233.46043396 C41.983489 232.38767186 40.35084481 231.31558055 38.71777344 230.24414062 C36.26646454 228.63580261 33.81669547 227.02514169 31.3671875 225.4140625 C28.15839207 223.30388607 24.94489855 221.20112813 21.72851562 219.10253906 C18.55198678 217.02739255 15.39786325 214.92292093 12.25585938 212.79589844 C11.11404205 212.03265762 11.11404205 212.03265762 9.94915771 211.2539978 C8.5194234 210.29823458 7.09591495 209.33306037 5.68023682 208.3565979 C1.4873271 205.57539932 -1.82998957 204.14080986 -7 204 C-9.10849127 204.58074384 -9.10849127 204.58074384 -10.796875 205.80859375 C-11.43923096 206.22149658 -12.08158691 206.63439941 -12.7434082 207.05981445 C-13.4055835 207.51445068 -14.06775879 207.96908691 -14.75 208.4375 C-15.45535889 208.90051514 -16.16071777 209.36353027 -16.88745117 209.84057617 C-21.66405279 213.004087 -26.31936606 216.32812397 -30.9140625 219.75 C-37.35446893 224.44579 -43.99347118 228.8638906 -50.58105469 233.34960938 C-54.98028456 236.3511025 -59.36450249 239.37442808 -63.7487793 242.39770508 C-64.93928982 243.2175386 -66.13134466 244.03513574 -67.32519531 244.85009766 C-68.96781174 245.97789989 -70.59543487 247.12744064 -72.22265625 248.27734375 C-75.77983369 250.48369432 -77.88517743 250.60960334 -82 250 C-84.4375 248.4375 -84.4375 248.4375 -86 246 C-86.37384919 240.75966572 -85.46211723 236.33741127 -83.9375 231.375 C-80.14331351 218.37109963 -77.11622839 205.17915654 -74 192 C-73.70883301 190.77861328 -73.41766602 189.55722656 -73.11767578 188.29882812 C-72.280604 184.78397839 -71.45140976 181.26737013 -70.625 177.75 C-70.24903687 176.1721875 -70.24903687 176.1721875 -69.86547852 174.5625 C-69.20314551 171.71490609 -68.58273844 168.86487098 -68 166 C-67.82694336 165.15759766 -67.65388672 164.31519531 -67.47558594 163.44726562 C-66.82886584 159.51507776 -66.58169506 157.71952453 -68.6328125 154.19140625 C-70.99076345 152.00855067 -73.35166212 149.92779234 -75.875 147.9375 C-80.25357423 144.42533687 -84.55872137 140.84978389 -88.8125 137.1875 C-89.39789551 136.68436279 -89.98329102 136.18122559 -90.58642578 135.6628418 C-93.00217345 133.58500925 -95.41557947 131.50447842 -97.82763672 129.42236328 C-106.3978748 122.01686775 -106.3978748 122.01686775 -115.1875 114.875 C-118.88311648 111.93446795 -122.51099531 108.92546906 -126.0625 105.8125 C-127.44115234 104.61560547 -127.44115234 104.61560547 -128.84765625 103.39453125 C-131.17764868 100.80236181 -131.76416953 99.43392178 -132 96 C-131.5 93.875 -131.5 93.875 -130 92 C-125.0600641 89.51236863 -120.73801432 88.48446504 -115.20703125 88.15625 C-114.10321358 88.07497108 -114.10321358 88.07497108 -112.97709656 87.99205017 C-111.40404687 87.87719284 -109.83060059 87.76766113 -108.25683594 87.66305542 C-104.10290592 87.38595734 -99.95210511 87.0672721 -95.80078125 86.75390625 C-94.96858063 86.69211685 -94.13638 86.63032745 -93.27896118 86.56666565 C-85.6701221 85.9947235 -78.08627082 85.25928049 -70.5 84.4375 C-69.41823486 84.32277344 -68.33646973 84.20804687 -67.22192383 84.08984375 C-64.14443375 83.75166331 -61.07296604 83.37682732 -58 83 C-56.83726563 82.88156738 -55.67453125 82.76313477 -54.4765625 82.64111328 C-52.74019531 82.43397705 -52.74019531 82.43397705 -50.96875 82.22265625 C-49.92138672 82.10801025 -48.87402344 81.99336426 -47.79492188 81.87524414 C-44.11968299 80.72432421 -43.05774862 79.2128123 -41 76 C-39.66214946 73.29901426 -39.66214946 73.29901426 -38.58984375 70.37109375 C-38.16276123 69.26725342 -37.73567871 68.16341309 -37.2956543 67.02612305 C-36.84746338 65.84187744 -36.39927246 64.65763184 -35.9375 63.4375 C-35.21251568 61.5566758 -34.48751738 59.67585683 -33.76167297 57.79536438 C-33.00835413 55.84050715 -32.25882346 53.88422782 -31.50976562 51.92773438 C-28.65324997 44.47976411 -25.71478991 37.06364541 -22.79052734 29.64208984 C-20.88206607 24.79646857 -18.97519113 19.95116199 -17.1171875 15.0859375 C-16.71270386 14.03950073 -16.71270386 14.03950073 -16.30004883 12.97192383 C-15.63307668 11.2452144 -14.97425559 9.51536189 -14.31640625 7.78515625 C-10.87095984 0.49553225 -7.96476975 -1.92253063 0 0 Z " fill="#F4F6F7" transform="translate(1625,51)"/>
<path d="M0 0 C3.84491806 3.89301456 5.55944367 8.29213577 7.4609375 13.30859375 C7.93051376 14.51335106 7.93051376 14.51335106 8.40957642 15.7424469 C9.40643653 18.30430638 10.39123772 20.8705859 11.375 23.4375 C12.67078318 26.7918027 13.97147715 30.14418451 15.2734375 33.49609375 C15.58961533 34.31254364 15.90579315 35.12899353 16.23155212 35.97018433 C18.59896272 42.05385363 21.12814339 48.04859273 23.73144531 54.03540039 C25.34786523 57.81295756 26.79825381 61.63427148 28.1875 65.5 C30.78629719 74.19439962 30.78629719 74.19439962 36.57446289 80.60351562 C40.62805615 82.25603886 44.17728101 82.71274343 48.5078125 83.0625 C49.33475616 83.13879135 50.16169983 83.2150827 51.01370239 83.29368591 C52.79204771 83.45584723 54.57091894 83.61232352 56.35021973 83.76364136 C59.15233693 84.00232859 61.95257498 84.25737904 64.75292969 84.51586914 C74.0190258 85.36060212 83.28780816 86.10754429 92.5703125 86.74609375 C95.01745709 86.92208488 97.46451221 87.09928086 99.91156006 87.27661133 C102.20739272 87.43456855 104.50375133 87.56651103 106.80126953 87.69726562 C108.20613285 87.79576644 109.61092317 87.89531617 111.015625 87.99609375 C112.22508789 88.07013428 113.43455078 88.1441748 114.68066406 88.22045898 C119.06785206 89.25078344 120.84059346 90.80946484 124 94 C124.61328125 97.04296875 124.61328125 97.04296875 124 100 C122.41796875 102.23828125 122.41796875 102.23828125 120.1875 104.3125 C119.35863281 105.08722656 118.52976562 105.86195313 117.67578125 106.66015625 C114.21240793 109.68871189 110.67640712 112.60797637 107.0859375 115.484375 C103.49001714 118.41573287 99.99390475 121.44849527 96.5 124.5 C92.19605176 128.25308598 87.87237156 131.96365725 83.4375 135.5625 C79.10698278 139.08023246 74.81827116 142.64243333 70.5625 146.25 C69.97073975 146.7457251 69.37897949 147.2414502 68.76928711 147.75219727 C67.14627191 149.13507602 65.57411284 150.56206331 64 152 C63.16339844 152.69609375 62.32679688 153.3921875 61.46484375 154.109375 C58.94236568 159.08706505 60.74789506 163.75013339 62 169 C62.15416382 169.65579041 62.30832764 170.31158081 62.46716309 170.98724365 C63.70814349 176.2365877 65.03558103 181.46256427 66.375 186.6875 C67.15581293 189.7533581 67.93378142 192.81993187 68.7109375 195.88671875 C68.90236328 196.63992401 69.09378906 197.39312927 69.29101562 198.16915894 C70.80584498 204.15730826 72.23696368 210.16300699 73.61532593 216.18400574 C74.68962248 220.83635673 75.93550863 225.41141534 77.25 230 C78.96302491 236.37136933 80.48721664 242.18900736 78 248.5625 C75.51692681 250.34720885 73.50628822 250.86093223 70.45263672 250.69311523 C67.22508383 249.78100866 65.09813766 248.19410241 62.3828125 246.22265625 C61.2239431 245.39566993 60.06353132 244.57084213 58.90185547 243.74780273 C58.27583435 243.3033078 57.64981323 242.85881287 57.00482178 242.40084839 C53.38972731 239.87483869 49.70142034 237.46021419 46.015625 235.0390625 C45.22364716 234.51811508 44.43166931 233.99716766 43.61569214 233.46043396 C41.983489 232.38767186 40.35084481 231.31558055 38.71777344 230.24414062 C36.26646454 228.63580261 33.81669547 227.02514169 31.3671875 225.4140625 C28.15839207 223.30388607 24.94489855 221.20112813 21.72851562 219.10253906 C18.55198678 217.02739255 15.39786325 214.92292093 12.25585938 212.79589844 C11.11404205 212.03265762 11.11404205 212.03265762 9.94915771 211.2539978 C8.5194234 210.29823458 7.09591495 209.33306037 5.68023682 208.3565979 C1.4873271 205.57539932 -1.82998957 204.14080986 -7 204 C-9.10849127 204.58074384 -9.10849127 204.58074384 -10.796875 205.80859375 C-11.43923096 206.22149658 -12.08158691 206.63439941 -12.7434082 207.05981445 C-13.4055835 207.51445068 -14.06775879 207.96908691 -14.75 208.4375 C-15.45535889 208.90051514 -16.16071777 209.36353027 -16.88745117 209.84057617 C-21.66405279 213.004087 -26.31936606 216.32812397 -30.9140625 219.75 C-37.35446893 224.44579 -43.99347118 228.8638906 -50.58105469 233.34960938 C-54.98028456 236.3511025 -59.36450249 239.37442808 -63.7487793 242.39770508 C-64.93928982 243.2175386 -66.13134466 244.03513574 -67.32519531 244.85009766 C-68.96781174 245.97789989 -70.59543487 247.12744064 -72.22265625 248.27734375 C-75.77983369 250.48369432 -77.88517743 250.60960334 -82 250 C-84.4375 248.4375 -84.4375 248.4375 -86 246 C-86.37384919 240.75966572 -85.46211723 236.33741127 -83.9375 231.375 C-80.14331351 218.37109963 -77.11622839 205.17915654 -74 192 C-73.70883301 190.77861328 -73.41766602 189.55722656 -73.11767578 188.29882812 C-72.280604 184.78397839 -71.45140976 181.26737013 -70.625 177.75 C-70.24903687 176.1721875 -70.24903687 176.1721875 -69.86547852 174.5625 C-69.20314551 171.71490609 -68.58273844 168.86487098 -68 166 C-67.82694336 165.15759766 -67.65388672 164.31519531 -67.47558594 163.44726562 C-66.82886584 159.51507776 -66.58169506 157.71952453 -68.6328125 154.19140625 C-70.99076345 152.00855067 -73.35166212 149.92779234 -75.875 147.9375 C-80.25357423 144.42533687 -84.55872137 140.84978389 -88.8125 137.1875 C-89.39789551 136.68436279 -89.98329102 136.18122559 -90.58642578 135.6628418 C-93.00217345 133.58500925 -95.41557947 131.50447842 -97.82763672 129.42236328 C-106.3978748 122.01686775 -106.3978748 122.01686775 -115.1875 114.875 C-118.88311648 111.93446795 -122.51099531 108.92546906 -126.0625 105.8125 C-127.44115234 104.61560547 -127.44115234 104.61560547 -128.84765625 103.39453125 C-131.17764868 100.80236181 -131.76416953 99.43392178 -132 96 C-131.5 93.875 -131.5 93.875 -130 92 C-125.0600641 89.51236863 -120.73801432 88.48446504 -115.20703125 88.15625 C-114.10321358 88.07497108 -114.10321358 88.07497108 -112.97709656 87.99205017 C-111.40404687 87.87719284 -109.83060059 87.76766113 -108.25683594 87.66305542 C-104.10290592 87.38595734 -99.95210511 87.0672721 -95.80078125 86.75390625 C-94.96858063 86.69211685 -94.13638 86.63032745 -93.27896118 86.56666565 C-85.6701221 85.9947235 -78.08627082 85.25928049 -70.5 84.4375 C-69.41823486 84.32277344 -68.33646973 84.20804687 -67.22192383 84.08984375 C-64.14443375 83.75166331 -61.07296604 83.37682732 -58 83 C-56.83726563 82.88156738 -55.67453125 82.76313477 -54.4765625 82.64111328 C-52.74019531 82.43397705 -52.74019531 82.43397705 -50.96875 82.22265625 C-49.92138672 82.10801025 -48.87402344 81.99336426 -47.79492188 81.87524414 C-44.11968299 80.72432421 -43.05774862 79.2128123 -41 76 C-39.66214946 73.29901426 -39.66214946 73.29901426 -38.58984375 70.37109375 C-38.16276123 69.26725342 -37.73567871 68.16341309 -37.2956543 67.02612305 C-36.84746338 65.84187744 -36.39927246 64.65763184 -35.9375 63.4375 C-35.21251568 61.5566758 -34.48751738 59.67585683 -33.76167297 57.79536438 C-33.00835413 55.84050715 -32.25882346 53.88422782 -31.50976562 51.92773438 C-28.65324997 44.47976411 -25.71478991 37.06364541 -22.79052734 29.64208984 C-20.88206607 24.79646857 -18.97519113 19.95116199 -17.1171875 15.0859375 C-16.71270386 14.03950073 -16.71270386 14.03950073 -16.30004883 12.97192383 C-15.63307668 11.2452144 -14.97425559 9.51536189 -14.31640625 7.78515625 C-10.87095984 0.49553225 -7.96476975 -1.92253063 0 0 Z " fill="#F4F6F7" transform="translate(1265,51)"/>
<path d="M0 0 C3.84491806 3.89301456 5.55944367 8.29213577 7.4609375 13.30859375 C7.93051376 14.51335106 7.93051376 14.51335106 8.40957642 15.7424469 C9.40643653 18.30430638 10.39123772 20.8705859 11.375 23.4375 C12.67078318 26.7918027 13.97147715 30.14418451 15.2734375 33.49609375 C15.58961533 34.31254364 15.90579315 35.12899353 16.23155212 35.97018433 C18.59896272 42.05385363 21.12814339 48.04859273 23.73144531 54.03540039 C25.34786523 57.81295756 26.79825381 61.63427148 28.1875 65.5 C30.78629719 74.19439962 30.78629719 74.19439962 36.57446289 80.60351562 C40.62805615 82.25603886 44.17728101 82.71274343 48.5078125 83.0625 C49.33475616 83.13879135 50.16169983 83.2150827 51.01370239 83.29368591 C52.79204771 83.45584723 54.57091894 83.61232352 56.35021973 83.76364136 C59.15233693 84.00232859 61.95257498 84.25737904 64.75292969 84.51586914 C74.0190258 85.36060212 83.28780816 86.10754429 92.5703125 86.74609375 C95.01745709 86.92208488 97.46451221 87.09928086 99.91156006 87.27661133 C102.20739272 87.43456855 104.50375133 87.56651103 106.80126953 87.69726562 C108.20613285 87.79576644 109.61092317 87.89531617 111.015625 87.99609375 C112.22508789 88.07013428 113.43455078 88.1441748 114.68066406 88.22045898 C119.06785206 89.25078344 120.84059346 90.80946484 124 94 C124.61328125 97.04296875 124.61328125 97.04296875 124 100 C122.41796875 102.23828125 122.41796875 102.23828125 120.1875 104.3125 C119.35863281 105.08722656 118.52976562 105.86195313 117.67578125 106.66015625 C114.21240793 109.68871189 110.67640712 112.60797637 107.0859375 115.484375 C103.49001714 118.41573287 99.99390475 121.44849527 96.5 124.5 C92.19605176 128.25308598 87.87237156 131.96365725 83.4375 135.5625 C79.10698278 139.08023246 74.81827116 142.64243333 70.5625 146.25 C69.97073975 146.7457251 69.37897949 147.2414502 68.76928711 147.75219727 C67.14627191 149.13507602 65.57411284 150.56206331 64 152 C63.16339844 152.69609375 62.32679688 153.3921875 61.46484375 154.109375 C58.94236568 159.08706505 60.74789506 163.75013339 62 169 C62.15416382 169.65579041 62.30832764 170.31158081 62.46716309 170.98724365 C63.70814349 176.2365877 65.03558103 181.46256427 66.375 186.6875 C67.15581293 189.7533581 67.93378142 192.81993187 68.7109375 195.88671875 C68.90236328 196.63992401 69.09378906 197.39312927 69.29101562 198.16915894 C70.80584498 204.15730826 72.23696368 210.16300699 73.61532593 216.18400574 C74.68962248 220.83635673 75.93550863 225.41141534 77.25 230 C78.96302491 236.37136933 80.48721664 242.18900736 78 248.5625 C75.51692681 250.34720885 73.50628822 250.86093223 70.45263672 250.69311523 C67.22508383 249.78100866 65.09813766 248.19410241 62.3828125 246.22265625 C61.2239431 245.39566993 60.06353132 244.57084213 58.90185547 243.74780273 C58.27583435 243.3033078 57.64981323 242.85881287 57.00482178 242.40084839 C53.38972731 239.87483869 49.70142034 237.46021419 46.015625 235.0390625 C45.22364716 234.51811508 44.43166931 233.99716766 43.61569214 233.46043396 C41.983489 232.38767186 40.35084481 231.31558055 38.71777344 230.24414062 C36.26646454 228.63580261 33.81669547 227.02514169 31.3671875 225.4140625 C28.15839207 223.30388607 24.94489855 221.20112813 21.72851562 219.10253906 C18.55198678 217.02739255 15.39786325 214.92292093 12.25585938 212.79589844 C11.11404205 212.03265762 11.11404205 212.03265762 9.94915771 211.2539978 C8.5194234 210.29823458 7.09591495 209.33306037 5.68023682 208.3565979 C1.4873271 205.57539932 -1.82998957 204.14080986 -7 204 C-9.10849127 204.58074384 -9.10849127 204.58074384 -10.796875 205.80859375 C-11.43923096 206.22149658 -12.08158691 206.63439941 -12.7434082 207.05981445 C-13.4055835 207.51445068 -14.06775879 207.96908691 -14.75 208.4375 C-15.45535889 208.90051514 -16.16071777 209.36353027 -16.88745117 209.84057617 C-21.66405279 213.004087 -26.31936606 216.32812397 -30.9140625 219.75 C-37.35446893 224.44579 -43.99347118 228.8638906 -50.58105469 233.34960938 C-54.98028456 236.3511025 -59.36450249 239.37442808 -63.7487793 242.39770508 C-64.93928982 243.2175386 -66.13134466 244.03513574 -67.32519531 244.85009766 C-68.96781174 245.97789989 -70.59543487 247.12744064 -72.22265625 248.27734375 C-75.77983369 250.48369432 -77.88517743 250.60960334 -82 250 C-84.4375 248.4375 -84.4375 248.4375 -86 246 C-86.37384919 240.75966572 -85.46211723 236.33741127 -83.9375 231.375 C-80.14331351 218.37109963 -77.11622839 205.17915654 -74 192 C-73.70883301 190.77861328 -73.41766602 189.55722656 -73.11767578 188.29882812 C-72.280604 184.78397839 -71.45140976 181.26737013 -70.625 177.75 C-70.24903687 176.1721875 -70.24903687 176.1721875 -69.86547852 174.5625 C-69.20314551 171.71490609 -68.58273844 168.86487098 -68 166 C-67.82694336 165.15759766 -67.65388672 164.31519531 -67.47558594 163.44726562 C-66.82886584 159.51507776 -66.58169506 157.71952453 -68.6328125 154.19140625 C-70.99076345 152.00855067 -73.35166212 149.92779234 -75.875 147.9375 C-80.25357423 144.42533687 -84.55872137 140.84978389 -88.8125 137.1875 C-89.39789551 136.68436279 -89.98329102 136.18122559 -90.58642578 135.6628418 C-93.00217345 133.58500925 -95.41557947 131.50447842 -97.82763672 129.42236328 C-106.3978748 122.01686775 -106.3978748 122.01686775 -115.1875 114.875 C-118.88311648 111.93446795 -122.51099531 108.92546906 -126.0625 105.8125 C-127.44115234 104.61560547 -127.44115234 104.61560547 -128.84765625 103.39453125 C-131.17764868 100.80236181 -131.76416953 99.43392178 -132 96 C-131.5 93.875 -131.5 93.875 -130 92 C-125.0600641 89.51236863 -120.73801432 88.48446504 -115.20703125 88.15625 C-114.10321358 88.07497108 -114.10321358 88.07497108 -112.97709656 87.99205017 C-111.40404687 87.87719284 -109.83060059 87.76766113 -108.25683594 87.66305542 C-104.10290592 87.38595734 -99.95210511 87.0672721 -95.80078125 86.75390625 C-94.96858063 86.69211685 -94.13638 86.63032745 -93.27896118 86.56666565 C-85.6701221 85.9947235 -78.08627082 85.25928049 -70.5 84.4375 C-69.41823486 84.32277344 -68.33646973 84.20804687 -67.22192383 84.08984375 C-64.14443375 83.75166331 -61.07296604 83.37682732 -58 83 C-56.83726562 82.88156738 -55.67453125 82.76313477 -54.4765625 82.64111328 C-52.74019531 82.43397705 -52.74019531 82.43397705 -50.96875 82.22265625 C-49.92138672 82.10801025 -48.87402344 81.99336426 -47.79492188 81.87524414 C-44.11968299 80.72432421 -43.05774862 79.2128123 -41 76 C-39.66214946 73.29901426 -39.66214946 73.29901426 -38.58984375 70.37109375 C-38.16276123 69.26725342 -37.73567871 68.16341309 -37.2956543 67.02612305 C-36.84746338 65.84187744 -36.39927246 64.65763184 -35.9375 63.4375 C-35.21251568 61.5566758 -34.48751738 59.67585683 -33.76167297 57.79536438 C-33.00835413 55.84050715 -32.25882346 53.88422782 -31.50976562 51.92773438 C-28.65324997 44.47976411 -25.71478991 37.06364541 -22.79052734 29.64208984 C-20.88206607 24.79646857 -18.97519113 19.95116199 -17.1171875 15.0859375 C-16.71270386 14.03950073 -16.71270386 14.03950073 -16.30004883 12.97192383 C-15.63307668 11.2452144 -14.97425559 9.51536189 -14.31640625 7.78515625 C-10.87095984 0.49553225 -7.96476975 -1.92253063 0 0 Z " fill="#F4F6F7" transform="translate(905,51)"/>
<path d="M0 0 C3.84491806 3.89301456 5.55944367 8.29213577 7.4609375 13.30859375 C7.93051376 14.51335106 7.93051376 14.51335106 8.40957642 15.7424469 C9.40643653 18.30430638 10.39123772 20.8705859 11.375 23.4375 C12.67078318 26.7918027 13.97147715 30.14418451 15.2734375 33.49609375 C15.58961533 34.31254364 15.90579315 35.12899353 16.23155212 35.97018433 C18.59896272 42.05385363 21.12814339 48.04859273 23.73144531 54.03540039 C25.34786523 57.81295756 26.79825381 61.63427148 28.1875 65.5 C30.78629719 74.19439962 30.78629719 74.19439962 36.57446289 80.60351562 C40.62805615 82.25603886 44.17728101 82.71274343 48.5078125 83.0625 C49.33475616 83.13879135 50.16169983 83.2150827 51.01370239 83.29368591 C52.79204771 83.45584723 54.57091894 83.61232352 56.35021973 83.76364136 C59.15233693 84.00232859 61.95257498 84.25737904 64.75292969 84.51586914 C74.0190258 85.36060212 83.28780816 86.10754429 92.5703125 86.74609375 C95.01745709 86.92208488 97.46451221 87.09928086 99.91156006 87.27661133 C102.20739272 87.43456855 104.50375133 87.56651103 106.80126953 87.69726562 C108.20613285 87.79576644 109.61092317 87.89531617 111.015625 87.99609375 C112.22508789 88.07013428 113.43455078 88.1441748 114.68066406 88.22045898 C119.06785206 89.25078344 120.84059346 90.80946484 124 94 C124.61328125 97.04296875 124.61328125 97.04296875 124 100 C122.41796875 102.23828125 122.41796875 102.23828125 120.1875 104.3125 C119.35863281 105.08722656 118.52976562 105.86195313 117.67578125 106.66015625 C114.21240793 109.68871189 110.67640712 112.60797637 107.0859375 115.484375 C103.49001714 118.41573287 99.99390475 121.44849527 96.5 124.5 C92.19605176 128.25308598 87.87237156 131.96365725 83.4375 135.5625 C79.10698278 139.08023246 74.81827116 142.64243333 70.5625 146.25 C69.97073975 146.7457251 69.37897949 147.2414502 68.76928711 147.75219727 C67.14627191 149.13507602 65.57411284 150.56206331 64 152 C63.16339844 152.69609375 62.32679688 153.3921875 61.46484375 154.109375 C58.94236568 159.08706505 60.74789506 163.75013339 62 169 C62.15416382 169.65579041 62.30832764 170.31158081 62.46716309 170.98724365 C63.70814349 176.2365877 65.03558103 181.46256427 66.375 186.6875 C67.15581293 189.7533581 67.93378142 192.81993187 68.7109375 195.88671875 C68.90236328 196.63992401 69.09378906 197.39312927 69.29101562 198.16915894 C70.80584498 204.15730826 72.23696368 210.16300699 73.61532593 216.18400574 C74.68962248 220.83635673 75.93550863 225.41141534 77.25 230 C78.96302491 236.37136933 80.48721664 242.18900736 78 248.5625 C75.51692681 250.34720885 73.50628822 250.86093223 70.45263672 250.69311523 C67.22508383 249.78100866 65.09813766 248.19410241 62.3828125 246.22265625 C61.2239431 245.39566993 60.06353132 244.57084213 58.90185547 243.74780273 C58.27583435 243.3033078 57.64981323 242.85881287 57.00482178 242.40084839 C53.38972731 239.87483869 49.70142034 237.46021419 46.015625 235.0390625 C45.22364716 234.51811508 44.43166931 233.99716766 43.61569214 233.46043396 C41.983489 232.38767186 40.35084481 231.31558055 38.71777344 230.24414062 C36.26646454 228.63580261 33.81669547 227.02514169 31.3671875 225.4140625 C28.15839207 223.30388607 24.94489855 221.20112813 21.72851562 219.10253906 C18.55198678 217.02739255 15.39786325 214.92292093 12.25585938 212.79589844 C11.11404205 212.03265762 11.11404205 212.03265762 9.94915771 211.2539978 C8.5194234 210.29823458 7.09591495 209.33306037 5.68023682 208.3565979 C1.4873271 205.57539932 -1.82998957 204.14080986 -7 204 C-9.10849127 204.58074384 -9.10849127 204.58074384 -10.796875 205.80859375 C-11.43923096 206.22149658 -12.08158691 206.63439941 -12.7434082 207.05981445 C-13.4055835 207.51445068 -14.06775879 207.96908691 -14.75 208.4375 C-15.45535889 208.90051514 -16.16071777 209.36353027 -16.88745117 209.84057617 C-21.66405279 213.004087 -26.31936606 216.32812397 -30.9140625 219.75 C-37.35446893 224.44579 -43.99347118 228.8638906 -50.58105469 233.34960938 C-54.98028456 236.3511025 -59.36450249 239.37442808 -63.7487793 242.39770508 C-64.93928982 243.2175386 -66.13134466 244.03513574 -67.32519531 244.85009766 C-68.96781174 245.97789989 -70.59543487 247.12744064 -72.22265625 248.27734375 C-75.77983369 250.48369432 -77.88517743 250.60960334 -82 250 C-84.4375 248.4375 -84.4375 248.4375 -86 246 C-86.37384919 240.75966572 -85.46211723 236.33741127 -83.9375 231.375 C-80.14331351 218.37109963 -77.11622839 205.17915654 -74 192 C-73.70883301 190.77861328 -73.41766602 189.55722656 -73.11767578 188.29882812 C-72.280604 184.78397839 -71.45140976 181.26737013 -70.625 177.75 C-70.24903687 176.1721875 -70.24903687 176.1721875 -69.86547852 174.5625 C-69.20314551 171.71490609 -68.58273844 168.86487098 -68 166 C-67.82694336 165.15759766 -67.65388672 164.31519531 -67.47558594 163.44726562 C-66.82886584 159.51507776 -66.58169506 157.71952453 -68.6328125 154.19140625 C-70.99076345 152.00855067 -73.35166212 149.92779234 -75.875 147.9375 C-80.25357423 144.42533687 -84.55872137 140.84978389 -88.8125 137.1875 C-89.39789551 136.68436279 -89.98329102 136.18122559 -90.58642578 135.6628418 C-93.00217345 133.58500925 -95.41557947 131.50447842 -97.82763672 129.42236328 C-106.3978748 122.01686775 -106.3978748 122.01686775 -115.1875 114.875 C-118.88311648 111.93446795 -122.51099531 108.92546906 -126.0625 105.8125 C-127.44115234 104.61560547 -127.44115234 104.61560547 -128.84765625 103.39453125 C-131.17764868 100.80236181 -131.76416953 99.43392178 -132 96 C-131.5 93.875 -131.5 93.875 -130 92 C-125.0600641 89.51236863 -120.73801432 88.48446504 -115.20703125 88.15625 C-114.10321358 88.07497108 -114.10321358 88.07497108 -112.97709656 87.99205017 C-111.40404687 87.87719284 -109.83060059 87.76766113 -108.25683594 87.66305542 C-104.10290592 87.38595734 -99.95210511 87.0672721 -95.80078125 86.75390625 C-94.96858063 86.69211685 -94.13638 86.63032745 -93.27896118 86.56666565 C-85.6701221 85.9947235 -78.08627082 85.25928049 -70.5 84.4375 C-69.41823486 84.32277344 -68.33646973 84.20804687 -67.22192383 84.08984375 C-64.14443375 83.75166331 -61.07296604 83.37682732 -58 83 C-56.83726562 82.88156738 -55.67453125 82.76313477 -54.4765625 82.64111328 C-52.74019531 82.43397705 -52.74019531 82.43397705 -50.96875 82.22265625 C-49.92138672 82.10801025 -48.87402344 81.99336426 -47.79492188 81.87524414 C-44.11968299 80.72432421 -43.05774862 79.2128123 -41 76 C-39.66214946 73.29901426 -39.66214946 73.29901426 -38.58984375 70.37109375 C-38.16276123 69.26725342 -37.73567871 68.16341309 -37.2956543 67.02612305 C-36.84746338 65.84187744 -36.39927246 64.65763184 -35.9375 63.4375 C-35.21251568 61.5566758 -34.48751738 59.67585683 -33.76167297 57.79536438 C-33.00835413 55.84050715 -32.25882346 53.88422782 -31.50976562 51.92773438 C-28.65324997 44.47976411 -25.71478991 37.06364541 -22.79052734 29.64208984 C-20.88206607 24.79646857 -18.97519113 19.95116199 -17.1171875 15.0859375 C-16.71270386 14.03950073 -16.71270386 14.03950073 -16.30004883 12.97192383 C-15.63307668 11.2452144 -14.97425559 9.51536189 -14.31640625 7.78515625 C-10.87095984 0.49553225 -7.96476975 -1.92253063 0 0 Z " fill="#F4F6F7" transform="translate(545,51)"/>
<path d="M0 0 C3.84491806 3.89301456 5.55944367 8.29213577 7.4609375 13.30859375 C7.93051376 14.51335106 7.93051376 14.51335106 8.40957642 15.7424469 C9.40643653 18.30430638 10.39123772 20.8705859 11.375 23.4375 C12.67078318 26.7918027 13.97147715 30.14418451 15.2734375 33.49609375 C15.58961533 34.31254364 15.90579315 35.12899353 16.23155212 35.97018433 C18.59896272 42.05385363 21.12814339 48.04859273 23.73144531 54.03540039 C25.34786523 57.81295756 26.79825381 61.63427148 28.1875 65.5 C30.78629719 74.19439962 30.78629719 74.19439962 36.57446289 80.60351562 C40.62805615 82.25603886 44.17728101 82.71274343 48.5078125 83.0625 C49.33475616 83.13879135 50.16169983 83.2150827 51.01370239 83.29368591 C52.79204771 83.45584723 54.57091894 83.61232352 56.35021973 83.76364136 C59.15233693 84.00232859 61.95257498 84.25737904 64.75292969 84.51586914 C74.0190258 85.36060212 83.28780816 86.10754429 92.5703125 86.74609375 C95.01745709 86.92208488 97.46451221 87.09928086 99.91156006 87.27661133 C102.20739272 87.43456855 104.50375133 87.56651103 106.80126953 87.69726562 C108.20613285 87.79576644 109.61092317 87.89531617 111.015625 87.99609375 C112.22508789 88.07013428 113.43455078 88.1441748 114.68066406 88.22045898 C119.06785206 89.25078344 120.84059346 90.80946484 124 94 C124.61328125 97.04296875 124.61328125 97.04296875 124 100 C122.41796875 102.23828125 122.41796875 102.23828125 120.1875 104.3125 C119.35863281 105.08722656 118.52976562 105.86195313 117.67578125 106.66015625 C114.21240793 109.68871189 110.67640712 112.60797637 107.0859375 115.484375 C103.49001714 118.41573287 99.99390475 121.44849527 96.5 124.5 C92.19605176 128.25308598 87.87237156 131.96365725 83.4375 135.5625 C79.10698278 139.08023246 74.81827116 142.64243333 70.5625 146.25 C69.97073975 146.7457251 69.37897949 147.2414502 68.76928711 147.75219727 C67.14627191 149.13507602 65.57411284 150.56206331 64 152 C63.16339844 152.69609375 62.32679688 153.3921875 61.46484375 154.109375 C58.94236568 159.08706505 60.74789506 163.75013339 62 169 C62.15416382 169.65579041 62.30832764 170.31158081 62.46716309 170.98724365 C63.70814349 176.2365877 65.03558103 181.46256427 66.375 186.6875 C67.15581293 189.7533581 67.93378142 192.81993187 68.7109375 195.88671875 C68.90236328 196.63992401 69.09378906 197.39312927 69.29101562 198.16915894 C70.80584498 204.15730826 72.23696368 210.16300699 73.61532593 216.18400574 C74.68962248 220.83635673 75.93550863 225.41141534 77.25 230 C78.96302491 236.37136933 80.48721664 242.18900736 78 248.5625 C75.51692681 250.34720885 73.50628822 250.86093223 70.45263672 250.69311523 C67.22508383 249.78100866 65.09813766 248.19410241 62.3828125 246.22265625 C61.2239431 245.39566993 60.06353132 244.57084213 58.90185547 243.74780273 C58.27583435 243.3033078 57.64981323 242.85881287 57.00482178 242.40084839 C53.38972731 239.87483869 49.70142034 237.46021419 46.015625 235.0390625 C45.22364716 234.51811508 44.43166931 233.99716766 43.61569214 233.46043396 C41.983489 232.38767186 40.35084481 231.31558055 38.71777344 230.24414062 C36.26646454 228.63580261 33.81669547 227.02514169 31.3671875 225.4140625 C28.15839207 223.30388607 24.94489855 221.20112813 21.72851562 219.10253906 C18.55198678 217.02739255 15.39786325 214.92292093 12.25585938 212.79589844 C11.11404205 212.03265762 11.11404205 212.03265762 9.94915771 211.2539978 C8.5194234 210.29823458 7.09591495 209.33306037 5.68023682 208.3565979 C1.4873271 205.57539932 -1.82998957 204.14080986 -7 204 C-9.10849127 204.58074384 -9.10849127 204.58074384 -10.796875 205.80859375 C-11.43923096 206.22149658 -12.08158691 206.63439941 -12.7434082 207.05981445 C-13.4055835 207.51445068 -14.06775879 207.96908691 -14.75 208.4375 C-15.45535889 208.90051514 -16.16071777 209.36353027 -16.88745117 209.84057617 C-21.66405279 213.004087 -26.31936606 216.32812397 -30.9140625 219.75 C-37.35446893 224.44579 -43.99347118 228.8638906 -50.58105469 233.34960938 C-54.98028456 236.3511025 -59.36450249 239.37442808 -63.7487793 242.39770508 C-64.93928982 243.2175386 -66.13134466 244.03513574 -67.32519531 244.85009766 C-68.96781174 245.97789989 -70.59543487 247.12744064 -72.22265625 248.27734375 C-75.77983369 250.48369432 -77.88517743 250.60960334 -82 250 C-84.4375 248.4375 -84.4375 248.4375 -86 246 C-86.37384919 240.75966572 -85.46211723 236.33741127 -83.9375 231.375 C-80.14331351 218.37109963 -77.11622839 205.17915654 -74 192 C-73.70883301 190.77861328 -73.41766602 189.55722656 -73.11767578 188.29882812 C-72.280604 184.78397839 -71.45140976 181.26737013 -70.625 177.75 C-70.24903687 176.1721875 -70.24903687 176.1721875 -69.86547852 174.5625 C-69.20314551 171.71490609 -68.58273844 168.86487098 -68 166 C-67.82694336 165.15759766 -67.65388672 164.31519531 -67.47558594 163.44726562 C-66.82886584 159.51507776 -66.58169506 157.71952453 -68.6328125 154.19140625 C-70.99076345 152.00855067 -73.35166212 149.92779234 -75.875 147.9375 C-80.25357423 144.42533687 -84.55872137 140.84978389 -88.8125 137.1875 C-89.39789551 136.68436279 -89.98329102 136.18122559 -90.58642578 135.6628418 C-93.00217345 133.58500925 -95.41557947 131.50447842 -97.82763672 129.42236328 C-106.3978748 122.01686775 -106.3978748 122.01686775 -115.1875 114.875 C-118.88311648 111.93446795 -122.51099531 108.92546906 -126.0625 105.8125 C-127.44115234 104.61560547 -127.44115234 104.61560547 -128.84765625 103.39453125 C-131.17764868 100.80236181 -131.76416953 99.43392178 -132 96 C-131.5 93.875 -131.5 93.875 -130 92 C-125.0600641 89.51236863 -120.73801432 88.48446504 -115.20703125 88.15625 C-114.10321358 88.07497108 -114.10321358 88.07497108 -112.97709656 87.99205017 C-111.40404687 87.87719284 -109.83060059 87.76766113 -108.25683594 87.66305542 C-104.10290592 87.38595734 -99.95210511 87.0672721 -95.80078125 86.75390625 C-94.96858063 86.69211685 -94.13638 86.63032745 -93.27896118 86.56666565 C-85.6701221 85.9947235 -78.08627082 85.25928049 -70.5 84.4375 C-69.41823486 84.32277344 -68.33646973 84.20804687 -67.22192383 84.08984375 C-64.14443375 83.75166331 -61.07296604 83.37682732 -58 83 C-56.83726562 82.88156738 -55.67453125 82.76313477 -54.4765625 82.64111328 C-52.74019531 82.43397705 -52.74019531 82.43397705 -50.96875 82.22265625 C-49.92138672 82.10801025 -48.87402344 81.99336426 -47.79492188 81.87524414 C-44.11968299 80.72432421 -43.05774862 79.2128123 -41 76 C-39.66214946 73.29901426 -39.66214946 73.29901426 -38.58984375 70.37109375 C-38.16276123 69.26725342 -37.73567871 68.16341309 -37.2956543 67.02612305 C-36.84746338 65.84187744 -36.39927246 64.65763184 -35.9375 63.4375 C-35.21251568 61.5566758 -34.48751738 59.67585683 -33.76167297 57.79536438 C-33.00835413 55.84050715 -32.25882346 53.88422782 -31.50976562 51.92773438 C-28.65324997 44.47976411 -25.71478991 37.06364541 -22.79052734 29.64208984 C-20.88206607 24.79646857 -18.97519113 19.95116199 -17.1171875 15.0859375 C-16.71270386 14.03950073 -16.71270386 14.03950073 -16.30004883 12.97192383 C-15.63307668 11.2452144 -14.97425559 9.51536189 -14.31640625 7.78515625 C-10.87095984 0.49553225 -7.96476975 -1.92253063 0 0 Z " fill="#F3CD14" transform="translate(185,51)"/>
<path d="M0 0 C3.84491806 3.89301456 5.55944367 8.29213577 7.4609375 13.30859375 C7.93051376 14.51335106 7.93051376 14.51335106 8.40957642 15.7424469 C9.40643653 18.30430638 10.39123772 20.8705859 11.375 23.4375 C12.67078318 26.7918027 13.97147715 30.14418451 15.2734375 33.49609375 C15.58961533 34.31254364 15.90579315 35.12899353 16.23155212 35.97018433 C18.59896272 42.05385363 21.12814339 48.04859273 23.73144531 54.03540039 C25.34786523 57.81295756 26.79825381 61.63427148 28.1875 65.5 C30.78629719 74.19439962 30.78629719 74.19439962 36.57446289 80.60351562 C40.62805615 82.25603886 44.17728101 82.71274343 48.5078125 83.0625 C49.33475616 83.13879135 50.16169983 83.2150827 51.01370239 83.29368591 C52.79204771 83.45584723 54.57091894 83.61232352 56.35021973 83.76364136 C59.15233693 84.00232859 61.95257498 84.25737904 64.75292969 84.51586914 C74.0190258 85.36060212 83.28780816 86.10754429 92.5703125 86.74609375 C95.01745709 86.92208488 97.46451221 87.09928086 99.91156006 87.27661133 C102.20739272 87.43456855 104.50375133 87.56651103 106.80126953 87.69726562 C108.20613285 87.79576644 109.61092317 87.89531617 111.015625 87.99609375 C112.22508789 88.07013428 113.43455078 88.1441748 114.68066406 88.22045898 C119.06785206 89.25078344 120.84059346 90.80946484 124 94 C124.61328125 97.04296875 124.61328125 97.04296875 124 100 C122.41796875 102.23828125 122.41796875 102.23828125 120.1875 104.3125 C119.35863281 105.08722656 118.52976562 105.86195313 117.67578125 106.66015625 C114.21240793 109.68871189 110.67640712 112.60797637 107.0859375 115.484375 C103.49001714 118.41573287 99.99390475 121.44849527 96.5 124.5 C92.19605176 128.25308598 87.87237156 131.96365725 83.4375 135.5625 C79.10698278 139.08023246 74.81827116 142.64243333 70.5625 146.25 C69.97073975 146.7457251 69.37897949 147.2414502 68.76928711 147.75219727 C67.14627191 149.13507602 65.57411284 150.56206331 64 152 C63.16339844 152.69609375 62.32679688 153.3921875 61.46484375 154.109375 C58.94236568 159.08706505 60.74789506 163.75013339 62 169 C62.15416382 169.65579041 62.30832764 170.31158081 62.46716309 170.98724365 C63.70814349 176.2365877 65.03558103 181.46256427 66.375 186.6875 C67.15581293 189.7533581 67.93378142 192.81993187 68.7109375 195.88671875 C68.90236328 196.63992401 69.09378906 197.39312927 69.29101562 198.16915894 C70.80584498 204.15730826 72.23696368 210.16300699 73.61532593 216.18400574 C74.68962248 220.83635673 75.93550863 225.41141534 77.25 230 C78.96302491 236.37136933 80.48721664 242.18900736 78 248.5625 C75.51489991 250.34866569 73.50437803 250.86162286 70.44848633 250.69091797 C67.24166749 249.78601246 65.14492915 248.22023438 62.44921875 246.2578125 C56.8634679 242.26519455 51.17776796 238.45961549 45.41796875 234.72265625 C43.72846664 233.62181997 42.03901399 232.52090778 40.34960938 231.41992188 C37.7422194 229.72260007 35.13345401 228.02753664 32.52124023 226.33764648 C29.9618631 224.68055184 27.40824693 223.01489258 24.85546875 221.34765625 C24.06504684 220.83936783 23.27462494 220.33107941 22.46025085 219.80738831 C21.74142227 219.33606979 21.02259369 218.86475128 20.28198242 218.37915039 C19.32819954 217.76034752 19.32819954 217.76034752 18.35514832 217.12904358 C17.90794937 216.7564592 17.46075043 216.38387482 17 216 C17 215.34 17 214.68 17 214 C17.99 214 18.98 214 20 214 C21.33333333 215.33333333 22.66666667 216.66666667 24 218 C26.63222962 219.25436187 26.63222962 219.25436187 29 220 C29 220.66 29 221.32 29 222 C29.99 222 30.98 222 32 222 C32 222.66 32 223.32 32 224 C32.99 224 33.98 224 35 224 C35 224.66 35 225.32 35 226 C35.99 226 36.98 226 38 226 C38 226.66 38 227.32 38 228 C38.61875 228.144375 39.2375 228.28875 39.875 228.4375 C42 229 42 229 44 230 C44 230.66 44 231.32 44 232 C44.87966431 232.17897827 44.87966431 232.17897827 45.77709961 232.36157227 C48.0808714 233.02322666 49.59395578 233.87061727 51.56640625 235.21484375 C52.21673828 235.65376953 52.86707031 236.09269531 53.53710938 236.54492188 C54.20548828 237.00447266 54.87386719 237.46402344 55.5625 237.9375 C56.23474609 238.39318359 56.90699219 238.84886719 57.59960938 239.31835938 C58.85017657 240.16655937 60.09914446 241.01712581 61.34594727 241.87084961 C62.88989084 242.92483323 64.4445681 243.9630454 66 245 C66 245.66 66 246.32 66 247 C69.63 247 73.26 247 77 247 C77.29657264 239.99741756 76.29801093 234.23753757 74.39453125 227.51953125 C73.83927344 225.47775221 73.28545072 223.43558246 72.73291016 221.39306641 C72.30223236 219.81600922 72.30223236 219.81600922 71.862854 218.20709229 C69.6007404 209.79917269 67.55709762 201.33314972 65.4753418 192.87915039 C64.944184 190.72736053 64.40993656 188.57633129 63.87280273 186.42602539 C63.07904216 183.24788153 62.29439287 180.06760862 61.51171875 176.88671875 C61.27321701 175.93866867 61.03471527 174.99061859 60.78898621 174.01383972 C56.94401584 158.23701907 56.94401584 158.23701907 59.1875 153.484375 C59.785625 152.91203125 60.38375 152.3396875 61 151.75 C61.96292969 150.79480469 61.96292969 150.79480469 62.9453125 149.8203125 C68.17841049 145.18414584 68.17841049 145.18414584 70.6171875 143.2265625 C72.14103109 142.02824461 72.14103109 142.02824461 73 140 C73.70253906 139.58492187 74.40507812 139.16984375 75.12890625 138.7421875 C78.74135635 136.55014295 81.76647648 133.90348562 84.9375 131.125 C86.1337766 130.08554839 87.33038816 129.04648216 88.52734375 128.0078125 C89.10468262 127.50411133 89.68202148 127.00041016 90.27685547 126.48144531 C91.95501984 125.03867095 93.66220385 123.63870518 95.37890625 122.2421875 C98.02610222 120.27193095 98.02610222 120.27193095 99 118 C99.69996094 117.58621094 100.39992188 117.17242187 101.12109375 116.74609375 C104.77226432 114.53161173 107.84868247 111.86053201 111.0625 109.0625 C111.67416016 108.53720703 112.28582031 108.01191406 112.91601562 107.47070312 C117.65616767 103.43819454 117.65616767 103.43819454 122 99 C122 95.98329588 121.5734112 94.60175754 119.48876953 92.4140625 C115.83568962 90.3384652 112.32162264 90.24783253 108.1796875 89.9375 C107.29996277 89.86111801 106.42023804 89.78473602 105.51385498 89.70603943 C103.62018545 89.54341909 101.7259854 89.38688464 99.83135986 89.23580933 C96.85957536 88.99876968 93.88953744 88.74571282 90.91943359 88.48852539 C82.34075296 87.7508565 73.75859647 87.05783103 65.17514038 86.37826538 C62.05232791 86.12919474 58.93022225 85.87188833 55.8081665 85.61352539 C53.66817732 85.44098132 51.52744199 85.28347901 49.38623047 85.12695312 C47.45094482 84.96936523 47.45094482 84.96936523 45.4765625 84.80859375 C44.36361816 84.72407959 43.25067383 84.63956543 42.10400391 84.55249023 C37.85883821 83.79688146 34.32870583 82.37462884 31.3046875 79.24609375 C29.58461457 76.28489035 28.36453789 73.2551476 27.125 70.0625 C26.41730469 68.25458984 26.41730469 68.25458984 25.6953125 66.41015625 C25.12923047 64.94048044 24.56422942 63.47038805 24 62 C22.60266937 58.36491525 21.2044165 54.73018698 19.80560303 51.09567261 C19.22951271 49.59704779 18.65429327 48.09808808 18.07965088 46.59890747 C15.94633633 41.03410673 13.79764956 35.47554956 11.63427734 29.92236328 C10.87325874 27.96166747 10.11713038 25.99906707 9.36572266 24.03466797 C8.26665521 21.16395521 7.15072839 18.30030458 6.03125 15.4375 C5.70088745 14.56351563 5.3705249 13.68953125 5.03015137 12.7890625 C3.05692916 7.80139297 1.22359678 4.37750724 -3 1 C-5.63506643 0.50985808 -5.63506643 0.50985808 -8 2 C-12.4031636 8.61926132 -15.05658145 16.15334547 -18 23.5 C-18.57001425 24.91154593 -19.14024898 26.32300284 -19.71069336 27.734375 C-22.65559977 35.04113939 -25.5454037 42.36807704 -28.37890625 49.71875 C-28.64891449 50.41907349 -28.91892273 51.11939697 -29.19711304 51.84094238 C-30.48631084 55.18983568 -31.76865778 58.54115703 -33.04101562 61.89648438 C-39.88066766 79.80168224 -39.88066766 79.80168224 -44 83 C-46.69726562 83.67993164 -46.69726562 83.67993164 -49.90625 84.09765625 C-51.07285156 84.25379395 -52.23945313 84.40993164 -53.44140625 84.57080078 C-54.61574219 84.71243652 -55.79007812 84.85407227 -57 85 C-58.01964844 85.12745605 -59.03929688 85.25491211 -60.08984375 85.38623047 C-63.22429142 85.76173241 -66.36072701 86.10479832 -69.5 86.4375 C-70.66619873 86.56310303 -71.83239746 86.68870605 -73.03393555 86.81811523 C-80.2833933 87.57568993 -87.53426339 88.22254055 -94.80078125 88.7890625 C-96.04702774 88.88668633 -96.04702774 88.88668633 -97.31845093 88.98628235 C-101.42766628 89.30605429 -105.53734598 89.61525101 -109.6484375 89.90991211 C-111.16797929 90.02443708 -112.68751102 90.13909561 -114.20703125 90.25390625 C-114.89138748 90.29967804 -115.57574371 90.34544983 -116.28083801 90.39260864 C-120.78150897 90.74072915 -124.7221752 91.64638961 -129 93 C-129.75544818 95.31462882 -129.75544818 95.31462882 -130 98 C-126.7306879 104.00187147 -120.27172261 108.40497146 -115.0234375 112.58203125 C-111.79610282 115.16306506 -108.6442158 117.81911294 -105.5 120.5 C-101.4754644 123.92408889 -97.41971077 127.29983924 -93.3125 130.625 C-88.92917227 134.19002197 -84.73328081 137.91671464 -80.5625 141.7265625 C-76.90188023 144.9742465 -73.0843819 148.01550412 -69.25 151.0546875 C-66.09404345 153.78327493 -65.0573812 155.30444686 -64.7109375 159.50390625 C-64.85414351 164.83529623 -66.25072907 169.81093051 -67.625 174.9375 C-68.18090767 177.08171528 -68.73555632 179.2262573 -69.2890625 181.37109375 C-69.57426758 182.4679248 -69.85947266 183.56475586 -70.15332031 184.69482422 C-71.49904865 189.94813167 -72.74915279 195.22344241 -74 200.5 C-75.51810557 206.88699829 -77.05780799 213.26637362 -78.67578125 219.62890625 C-79.08666992 221.24732422 -79.08666992 221.24732422 -79.50585938 222.8984375 C-80.02763281 224.94510329 -80.55340719 226.99075506 -81.08398438 229.03515625 C-82.59428914 234.96114771 -84 240.84573778 -84 247 C-77.20164511 247.56464742 -73.86439814 246.31037167 -68.4375 242.3125 C-67.50647461 241.65991211 -67.50647461 241.65991211 -66.55664062 240.99414062 C-64.0349993 239.21926274 -61.54351173 237.41036727 -59.08251953 235.55224609 C-54.3098545 232 -54.3098545 232 -51 232 C-50.67 231.01 -50.34 230.02 -50 229 C-44.74285714 225 -44.74285714 225 -41 225 C-41 224.34 -41 223.68 -41 223 C-40.01 223 -39.02 223 -38 223 C-38 222.34 -38 221.68 -38 221 C-35 219 -35 219 -32 219 C-31.67 218.01 -31.34 217.02 -31 216 C-28 214 -28 214 -25 214 C-25 213.34 -25 212.68 -25 212 C-24.01 212 -23.02 212 -22 212 C-22 211.34 -22 210.68 -22 210 C-20.68 209.67 -19.36 209.34 -18 209 C-18 209.66 -18 210.32 -18 211 C-20.04101562 212.61303711 -20.04101562 212.61303711 -22.90625 214.52734375 C-24.47548218 215.58381104 -24.47548218 215.58381104 -26.07641602 216.66162109 C-27.21757112 217.4203069 -28.35876663 218.17893192 -29.5 218.9375 C-30.65666744 219.71361258 -31.81283461 220.49047122 -32.96850586 221.26806641 C-35.2635559 222.81170203 -37.56047057 224.3524947 -39.85888672 225.89111328 C-43.7801545 228.52378164 -47.67506545 231.19276546 -51.5625 233.875 C-52.17988037 234.2968457 -52.79726074 234.71869141 -53.43334961 235.15332031 C-56.75309561 237.4252564 -60.03139176 239.74225586 -63.28125 242.11328125 C-63.99724365 242.62713379 -64.7132373 243.14098633 -65.45092773 243.67041016 C-66.81443253 244.65004003 -68.16891646 245.64240728 -69.51196289 246.64990234 C-73.76655628 249.68214165 -76.6103873 250.67370159 -82 250 C-84.4375 248.4375 -84.4375 248.4375 -86 246 C-86.37384919 240.75966572 -85.46211723 236.33741127 -83.9375 231.375 C-80.14331351 218.37109963 -77.11622839 205.17915654 -74 192 C-73.70883301 190.77861328 -73.41766602 189.55722656 -73.11767578 188.29882812 C-72.280604 184.78397839 -71.45140976 181.26737013 -70.625 177.75 C-70.24903687 176.1721875 -70.24903687 176.1721875 -69.86547852 174.5625 C-69.20314551 171.71490609 -68.58273844 168.86487098 -68 166 C-67.82694336 165.15759766 -67.65388672 164.31519531 -67.47558594 163.44726562 C-66.82886584 159.51507776 -66.58169506 157.71952453 -68.6328125 154.19140625 C-70.99076345 152.00855067 -73.35166212 149.92779234 -75.875 147.9375 C-80.25357423 144.42533687 -84.55872137 140.84978389 -88.8125 137.1875 C-89.39789551 136.68436279 -89.98329102 136.18122559 -90.58642578 135.6628418 C-93.00217345 133.58500925 -95.41557947 131.50447842 -97.82763672 129.42236328 C-106.3978748 122.01686775 -106.3978748 122.01686775 -115.1875 114.875 C-118.88311648 111.93446795 -122.51099531 108.92546906 -126.0625 105.8125 C-127.44115234 104.61560547 -127.44115234 104.61560547 -128.84765625 103.39453125 C-131.17764868 100.80236181 -131.76416953 99.43392178 -132 96 C-131.5 93.875 -131.5 93.875 -130 92 C-125.0600641 89.51236863 -120.73801432 88.48446504 -115.20703125 88.15625 C-114.10321358 88.07497108 -114.10321358 88.07497108 -112.97709656 87.99205017 C-111.40404687 87.87719284 -109.83060059 87.76766113 -108.25683594 87.66305542 C-104.10290592 87.38595734 -99.95210511 87.0672721 -95.80078125 86.75390625 C-94.96858063 86.69211685 -94.13638 86.63032745 -93.27896118 86.56666565 C-85.6701221 85.9947235 -78.08627082 85.25928049 -70.5 84.4375 C-69.41823486 84.32277344 -68.33646973 84.20804687 -67.22192383 84.08984375 C-64.14443375 83.75166331 -61.07296604 83.37682732 -58 83 C-56.83726562 82.88156738 -55.67453125 82.76313477 -54.4765625 82.64111328 C-52.74019531 82.43397705 -52.74019531 82.43397705 -50.96875 82.22265625 C-49.92138672 82.10801025 -48.87402344 81.99336426 -47.79492188 81.87524414 C-44.11968299 80.72432421 -43.05774862 79.2128123 -41 76 C-39.66214946 73.29901426 -39.66214946 73.29901426 -38.58984375 70.37109375 C-38.16276123 69.26725342 -37.73567871 68.16341309 -37.2956543 67.02612305 C-36.84746338 65.84187744 -36.39927246 64.65763184 -35.9375 63.4375 C-35.21251568 61.5566758 -34.48751738 59.67585683 -33.76167297 57.79536438 C-33.00835413 55.84050715 -32.25882346 53.88422782 -31.50976562 51.92773438 C-28.65324997 44.47976411 -25.71478991 37.06364541 -22.79052734 29.64208984 C-20.88206607 24.79646857 -18.97519113 19.95116199 -17.1171875 15.0859375 C-16.71270386 14.03950073 -16.71270386 14.03950073 -16.30004883 12.97192383 C-15.63307668 11.2452144 -14.97425559 9.51536189 -14.31640625 7.78515625 C-10.87095984 0.49553225 -7.96476975 -1.92253063 0 0 Z " fill="#F9F7EE" transform="translate(185,51)"/>
<path d="M0 0 C3.91725066 1.65185269 6.89091773 4.30421439 10.0625 7.0625 C11.23110957 8.06587484 12.40039022 9.06846857 13.5703125 10.0703125 C14.44091309 10.81716309 14.44091309 10.81716309 15.32910156 11.57910156 C17.66890123 13.56882016 20.05097953 15.50420597 22.4375 17.4375 C28.43924035 22.32587402 34.30290511 27.36864516 40.16650391 32.42089844 C43.27407014 35.09729502 46.38696957 37.76746333 49.5 40.4375 C50.06307861 40.92130127 50.62615723 41.40510254 51.20629883 41.90356445 C51.74665771 42.36722412 52.2870166 42.83088379 52.84375 43.30859375 C53.62492187 43.97930908 53.62492187 43.97930908 54.421875 44.66357422 C56.04541969 46.03846339 57.69381411 47.37962808 59.34375 48.72265625 C62 51 62 51 63 53 C63.44262188 59.72327374 62.10951366 65.46708383 60.375 71.9375 C59.81909233 74.08171528 59.26444368 76.2262573 58.7109375 78.37109375 C58.42573242 79.4679248 58.14052734 80.56475586 57.84667969 81.69482422 C56.50095135 86.94813167 55.25084721 92.22344241 54 97.5 C52.48189443 103.88699829 50.94219201 110.26637362 49.32421875 116.62890625 C48.91333008 118.24732422 48.91333008 118.24732422 48.49414062 119.8984375 C47.97236719 121.94510329 47.44659281 123.99075506 46.91601562 126.03515625 C45.40571086 131.96114771 44 137.84573778 44 144 C50.79835489 144.56464742 54.13560186 143.31037167 59.5625 139.3125 C60.49352539 138.65991211 60.49352539 138.65991211 61.44335938 137.99414062 C63.9650007 136.21926274 66.45648827 134.41036727 68.91748047 132.55224609 C73.6901455 129 73.6901455 129 77 129 C77.33 128.01 77.66 127.02 78 126 C83.25714286 122 83.25714286 122 87 122 C87 121.34 87 120.68 87 120 C87.99 120 88.98 120 90 120 C90 119.34 90 118.68 90 118 C93 116 93 116 96 116 C96.495 114.515 96.495 114.515 97 113 C100 111 100 111 103 111 C103 110.34 103 109.68 103 109 C103.99 109 104.98 109 106 109 C106 108.34 106 107.68 106 107 C107.32 106.67 108.64 106.34 110 106 C110 106.66 110 107.32 110 108 C107.95898438 109.61303711 107.95898438 109.61303711 105.09375 111.52734375 C103.52451782 112.58381104 103.52451782 112.58381104 101.92358398 113.66162109 C100.78242888 114.4203069 99.64123337 115.17893192 98.5 115.9375 C97.34333256 116.71361258 96.18716539 117.49047122 95.03149414 118.26806641 C92.7364441 119.81170203 90.43952943 121.3524947 88.14111328 122.89111328 C84.2198455 125.52378164 80.32493455 128.19276546 76.4375 130.875 C75.82011963 131.2968457 75.20273926 131.71869141 74.56665039 132.15332031 C71.24690439 134.4252564 67.96860824 136.74225586 64.71875 139.11328125 C64.00275635 139.62713379 63.2867627 140.14098633 62.54907227 140.67041016 C61.18556747 141.65004003 59.83108354 142.64240728 58.48803711 143.64990234 C54.23344372 146.68214165 51.3896127 147.67370159 46 147 C43.5625 145.4375 43.5625 145.4375 42 143 C41.62615081 137.75966572 42.53788277 133.33741127 44.0625 128.375 C47.85668649 115.37109963 50.88377161 102.17915654 54 89 C54.29116699 87.77861328 54.58233398 86.55722656 54.88232422 85.29882812 C55.719396 81.78397839 56.54859024 78.26737013 57.375 74.75 C57.62564209 73.698125 57.87628418 72.64625 58.13452148 71.5625 C58.79685449 68.71490609 59.41726156 65.86487098 60 63 C60.17305664 62.15759766 60.34611328 61.31519531 60.52441406 60.44726562 C61.17113416 56.51507776 61.41830494 54.71952453 59.3671875 51.19140625 C57.00923655 49.00855067 54.64833788 46.92779234 52.125 44.9375 C47.74642577 41.42533687 43.44127863 37.84978389 39.1875 34.1875 C38.30940674 33.43279419 38.30940674 33.43279419 37.41357422 32.6628418 C34.99782655 30.58500925 32.58442053 28.50447842 30.17236328 26.42236328 C23.62325913 20.77054073 17.05037449 15.18970034 10.265625 9.8203125 C6.75221146 6.99746645 3.24682223 4.12892087 0 1 C0 0.67 0 0.34 0 0 Z " fill="#F8F4EF" transform="translate(57,154)"/>
<path d="M0 0 C0.495 0.99 0.495 0.99 1 2 C0.32646484 2.45737549 -0.34707031 2.91475098 -1.04101562 3.38598633 C-15.87517337 13.45117131 -15.87517337 13.45117131 -30.67016602 23.57373047 C-31.92321378 24.43539278 -33.17759303 25.29512227 -34.43334961 26.15283203 C-37.75275136 28.42540964 -41.03132361 30.74220614 -44.28125 33.11328125 C-44.99724365 33.62713379 -45.7132373 34.14098633 -46.45092773 34.67041016 C-47.81443253 35.65004003 -49.16891646 36.64240728 -50.51196289 37.64990234 C-54.72662734 40.65368439 -57.65348701 41.82609904 -63 41 C-63.66 40.01 -64.32 39.02 -65 38 C-63.25396484 38.14501953 -63.25396484 38.14501953 -61.47265625 38.29296875 C-56.38649383 38.28737095 -53.43312782 36.25598758 -49.4375 33.3125 C-48.81681641 32.87744141 -48.19613281 32.44238281 -47.55664062 31.99414062 C-45.0349993 30.21926274 -42.54351173 28.41036727 -40.08251953 26.55224609 C-35.3098545 23 -35.3098545 23 -32 23 C-31.505 21.515 -31.505 21.515 -31 20 C-25.74285714 16 -25.74285714 16 -22 16 C-22 15.34 -22 14.68 -22 14 C-21.01 14 -20.02 14 -19 14 C-19 13.34 -19 12.68 -19 12 C-16 10 -16 10 -13 10 C-12.67 9.01 -12.34 8.02 -12 7 C-9 5 -9 5 -6 5 C-6 4.34 -6 3.68 -6 3 C-5.01 3 -4.02 3 -3 3 C-3 2.34 -3 1.68 -3 1 C-2.01 0.67 -1.02 0.34 0 0 Z " fill="#D8D3D0" transform="translate(166,260)"/>
<path d="M0 0 C0.99 0 1.98 0 3 0 C4.33333333 1.33333333 5.66666667 2.66666667 7 4 C9.63222962 5.25436187 9.63222962 5.25436187 12 6 C12 6.66 12 7.32 12 8 C12.99 8 13.98 8 15 8 C15 8.66 15 9.32 15 10 C15.99 10 16.98 10 18 10 C18 10.66 18 11.32 18 12 C18.99 12 19.98 12 21 12 C21 12.66 21 13.32 21 14 C21.61875 14.144375 22.2375 14.28875 22.875 14.4375 C25 15 25 15 27 16 C27 16.66 27 17.32 27 18 C27.58644287 18.11931885 28.17288574 18.2386377 28.77709961 18.36157227 C31.0808714 19.02322666 32.59395578 19.87061727 34.56640625 21.21484375 C35.21673828 21.65376953 35.86707031 22.09269531 36.53710938 22.54492188 C37.20548828 23.00447266 37.87386719 23.46402344 38.5625 23.9375 C39.23474609 24.39318359 39.90699219 24.84886719 40.59960938 25.31835938 C41.85017657 26.16655937 43.09914446 27.01712581 44.34594727 27.87084961 C45.88989084 28.92483323 47.4445681 29.9630454 49 31 C49 31.66 49 32.32 49 33 C52.96 33 56.92 33 61 33 C59 36 59 36 55.6875 36.75 C51.34847562 36.5639594 48.90600469 34.78548625 45.4453125 32.26171875 C44.29019815 31.43504625 43.13308284 30.61116511 41.97436523 29.78955078 C41.34223114 29.34121887 40.71009705 28.89288696 40.05880737 28.43096924 C36.23626208 25.7741181 32.32302932 23.2559084 28.41796875 20.72265625 C26.72845892 19.62183182 25.03900634 18.52091951 23.34960938 17.41992188 C20.7422194 15.72260007 18.13345401 14.02753664 15.52124023 12.33764648 C12.9618631 10.68055184 10.40824693 9.01489258 7.85546875 7.34765625 C7.06504684 6.83936783 6.27462494 6.33107941 5.46025085 5.80738831 C4.74142227 5.33606979 4.02259369 4.86475128 3.28198242 4.37915039 C2.64612717 3.96661514 2.01027191 3.5540799 1.35514832 3.12904358 C0.90794937 2.7564592 0.46075043 2.38387482 0 2 C0 1.34 0 0.68 0 0 Z " fill="#D5CDCB" transform="translate(202,265)"/>
<path d="M0 0 C2.50068655 1.40344653 4.78145407 2.81181919 7.125 4.4375 C11.80959468 7.69143598 11.80959468 7.69143598 17 10 C17.6875 12.0625 17.6875 12.0625 18 14 C16.93072266 13.31164062 16.93072266 13.31164062 15.83984375 12.609375 C13.86038901 11.34124518 11.8757692 10.08115038 9.88671875 8.828125 C8.22873913 7.77814603 6.57934371 6.71366417 4.95703125 5.609375 C2.00436018 3.69047664 0.10706293 3.0019466 -3.4375 2.9375 C-7.85302179 4.25441001 -11.25450434 6.36356019 -15 9 C-14.34 7.35 -13.68 5.7 -13 4 C-12.01 4 -11.02 4 -10 4 C-10 3.34 -10 2.68 -10 2 C-6.45361234 0.37879421 -3.89095198 -0.47745109 0 0 Z " fill="#EAE1DB" transform="translate(183,252)"/>
<path d="M0 0 C0.99 0 1.98 0 3 0 C4.33333333 1.33333333 5.66666667 2.66666667 7 4 C9.63222962 5.25436187 9.63222962 5.25436187 12 6 C12 6.66 12 7.32 12 8 C12.99 8 13.98 8 15 8 C15 8.66 15 9.32 15 10 C15.99 10 16.98 10 18 10 C18 10.66 18 11.32 18 12 C18.99 12 19.98 12 21 12 C21 12.66 21 13.32 21 14 C21.61875 14.144375 22.2375 14.28875 22.875 14.4375 C25 15 25 15 27 16 C27 16.66 27 17.32 27 18 C27.66 18.33 28.32 18.66 29 19 C25.01588519 19 23.34970606 17.52136195 20.01953125 15.3515625 C19.16025276 14.79267838 19.16025276 14.79267838 18.28361511 14.22250366 C17.07528909 13.43394665 15.8692249 12.64191444 14.6652832 11.84667969 C12.81537558 10.62689609 10.95624205 9.42223772 9.09570312 8.21875 C7.92389591 7.45141079 6.75265185 6.68321075 5.58203125 5.9140625 C4.51186768 5.2123291 3.4417041 4.5105957 2.33911133 3.78759766 C1.56720459 3.19769043 0.79529785 2.6077832 0 2 C0 1.34 0 0.68 0 0 Z " fill="#E2DDDB" transform="translate(202,265)"/>
<path d="M0 0 C-1.324451 3.973353 -3.19020201 4.84791675 -6.625 7.1875 C-7.64851563 7.90292969 -8.67203125 8.61835938 -9.7265625 9.35546875 C-13.50138242 11.25188782 -15.82959927 11.55033133 -20 11 C-20.66 10.01 -21.32 9.02 -22 8 C-20.9275 8.165 -19.855 8.33 -18.75 8.5 C-12.96168782 8.58298655 -9.0365911 5.02921072 -4.5390625 1.75 C-2 0 -2 0 0 0 Z " fill="#D0CBC3" transform="translate(123,290)"/>
<path d="M0 0 C2.5 1.375 2.5 1.375 5 3 C5 3.66 5 4.32 5 5 C8.96 5 12.92 5 17 5 C16.01 6.485 16.01 6.485 15 8 C9.08007924 8.80270112 6.00602084 7.92188603 1.25 4.38671875 C0 3 0 3 0 0 Z " fill="#DBD7D1" transform="translate(246,293)"/>
<path d="M0 0 C0.33 0.66 0.66 1.32 1 2 C-0.42859407 3.03325986 -1.86822383 4.05127634 -3.3125 5.0625 C-4.51326172 5.91521484 -4.51326172 5.91521484 -5.73828125 6.78515625 C-6.48464844 7.18605469 -7.23101562 7.58695312 -8 8 C-8.99 7.67 -9.98 7.34 -11 7 C-10.34 6.34 -9.68 5.68 -9 5 C-8.01 5 -7.02 5 -6 5 C-6 4.34 -6 3.68 -6 3 C-5.01 3 -4.02 3 -3 3 C-3 2.34 -3 1.68 -3 1 C-2.01 0.67 -1.02 0.34 0 0 Z " fill="#E3E0DB" transform="translate(166,260)"/>
</svg>
